<?xml version="1.0" encoding="UTF-8" standalone="no"?>
<!DOCTYPE svg PUBLIC "-//W3C//DTD SVG 1.1//EN" "http://www.w3.org/Graphics/SVG/1.1/DTD/svg11.dtd">
<svg xmlns="http://www.w3.org/2000/svg" version="1.1" viewBox="0.00 0.00 296.00 292.00">
<g stroke-width="2.00" fill="none" stroke-linecap="butt">
<path stroke="#2e2924" vector-effect="non-scaling-stroke" d="
  M 118.01 31.13
  L 115.25 31.24
  A 0.26 0.26 0.0 0 0 115.00 31.54
  Q 115.03 31.69 115.19 31.69
  Q 135.16 32.42 155.08 31.33"
/>
<path stroke="#474840" vector-effect="non-scaling-stroke" d="
  M 213.51 5.16
  Q 213.33 5.18 213.17 5.23
  Q 212.69 5.36 213.10 5.64
  Q 220.31 10.55 221.70 19.23
  A 1.31 1.28 -77.6 0 0 222.23 20.08
  Q 222.71 20.41 222.96 20.83"
/>
<path stroke="#474840" vector-effect="non-scaling-stroke" d="
  M 233.08 98.48
  L 232.34 98.22"
/>
<path stroke="#8e7133" vector-effect="non-scaling-stroke" d="
  M 232.34 98.22
  L 228.36 82.07"
/>
<path stroke="#7b461e" vector-effect="non-scaling-stroke" d="
  M 228.36 82.07
  Q 228.99 72.94 226.74 63.51"
/>
<path stroke="#8c6429" vector-effect="non-scaling-stroke" d="
  M 226.74 63.51
  C 226.49 54.15 223.55 8.98 211.63 7.44
  C 205.93 6.71 193.40 23.60 189.09 29.04"
/>
<path stroke="#7b461e" vector-effect="non-scaling-stroke" d="
  M 189.09 29.04
  L 184.33 33.02"
/>
<path stroke="#8e8144" vector-effect="non-scaling-stroke" d="
  M 184.33 33.02
  Q 173.22 32.14 162.23 32.82
  C 143.69 33.96 125.14 33.47 106.58 33.25
  C 102.82 33.21 98.52 33.72 94.52 33.77"
/>
<path stroke="#7b461e" vector-effect="non-scaling-stroke" d="
  M 94.52 33.77
  L 93.82 33.75
  A 0.89 0.89 0.0 0 1 93.14 33.38
  L 90.05 28.99"
/>
<path stroke="#8c6429" vector-effect="non-scaling-stroke" d="
  M 90.05 28.99
  Q 86.32 24.37 82.98 19.45
  C 79.65 14.54 72.01 7.29 64.97 6.09
  A 1.41 1.40 -56.7 0 0 63.97 6.30
  Q 61.90 7.64 61.27 9.29
  Q 52.05 33.38 52.28 59.35"
/>
<path stroke="#703f1e" vector-effect="non-scaling-stroke" d="
  M 52.28 59.35
  L 51.39 72.26
  A 1.40 1.39 27.7 0 0 51.70 73.24
  Q 54.02 76.04 54.25 79.12"
/>
<path stroke="#7b461e" vector-effect="non-scaling-stroke" d="
  M 54.25 79.12
  Q 52.97 76.76 51.56 75.77
  Q 51.08 75.42 50.96 76.01
  L 49.18 84.37"
/>
<path stroke="#8e7133" vector-effect="non-scaling-stroke" d="
  M 49.18 84.37
  L 47.18 97.99"
/>
<path stroke="#8e8144" vector-effect="non-scaling-stroke" d="
  M 47.18 97.99
  L 46.09 100.51"
/>
<path stroke="#e08e32" vector-effect="non-scaling-stroke" d="
  M 226.74 63.51
  Q 221.28 68.22 217.80 73.67
  A 0.47 0.47 0.0 0 1 216.96 73.25
  C 217.43 71.99 217.99 70.84 217.96 69.43
  Q 217.62 52.19 217.16 35.00
  A 0.89 0.89 0.0 0 0 215.43 34.72
  C 214.01 38.73 215.06 45.02 215.51 49.23
  A 0.35 0.34 72.5 0 1 215.34 49.56
  L 214.79 49.89
  A 0.60 0.60 0.0 0 0 214.50 50.51
  Q 214.56 50.88 214.30 51.07
  Q 213.99 51.31 213.97 50.92
  L 213.10 36.27"
/>
<path stroke="#79571f" vector-effect="non-scaling-stroke" d="
  M 213.10 36.27
  L 212.15 31.22"
/>
<path stroke="#e08e32" vector-effect="non-scaling-stroke" d="
  M 212.15 31.22
  L 207.42 31.37"
/>
<path stroke="#f2c263" vector-effect="non-scaling-stroke" d="
  M 207.42 31.37
  Q 209.13 29.26 210.56 26.88
  Q 211.60 25.14 208.49 24.70"
/>
<path stroke="#d58731" vector-effect="non-scaling-stroke" d="
  M 208.49 24.70
  Q 209.44 24.32 209.54 23.77
  Q 209.67 23.06 208.94 23.13
  C 203.45 23.70 195.45 30.54 192.30 33.72"
/>
<path stroke="#e08e32" vector-effect="non-scaling-stroke" d="
  M 192.30 33.72
  L 189.09 29.04"
/>
<path stroke="#a08445" vector-effect="non-scaling-stroke" d="
  M 184.71 33.73
  Q 177.50 39.27 172.88 47.20"
/>
<path stroke="#f5d662" vector-effect="non-scaling-stroke" d="
  M 172.88 47.20
  C 169.67 47.21 167.09 48.57 164.83 47.90
  C 158.01 45.90 149.15 45.08 142.39 47.15
  C 141.16 47.53 139.00 46.62 138.32 47.02"
/>
<path stroke="#a08445" vector-effect="non-scaling-stroke" d="
  M 138.32 47.02
  L 137.92 45.70
  Q 137.65 44.78 137.56 45.73
  L 137.36 47.80"
/>
<path stroke="#f5d662" vector-effect="non-scaling-stroke" d="
  M 137.36 47.80
  Q 129.23 47.70 120.93 48.30
  C 118.72 48.46 116.17 49.57 113.36 49.20
  Q 112.86 49.13 112.38 49.32
  L 106.05 51.74"
/>
<path stroke="#a08445" vector-effect="non-scaling-stroke" d="
  M 106.05 51.74
  L 93.94 34.23"
/>
<path stroke="#d7943c" vector-effect="non-scaling-stroke" d="
  M 64.87 79.88
  L 57.99 85.55"
/>
<path stroke="#c46827" vector-effect="non-scaling-stroke" d="
  M 57.99 85.55
  Q 55.49 82.82 54.25 79.12"
/>
<path stroke="#4e544f" vector-effect="non-scaling-stroke" d="
  M 233.07 100.23
  Q 232.76 100.57 232.67 101.02"
/>
<path stroke="#e08e32" vector-effect="non-scaling-stroke" d="
  M 90.05 28.99
  Q 88.44 31.82 85.94 32.07"
/>
<path stroke="#d58731" vector-effect="non-scaling-stroke" d="
  M 85.94 32.07
  C 83.71 29.71 73.02 20.67 69.73 22.26"
/>
<path stroke="#e08e32" vector-effect="non-scaling-stroke" d="
  M 69.73 22.26
  Q 69.32 22.32 68.84 21.84
  Q 68.48 21.47 68.10 21.83
  Q 66.21 23.64 66.12 25.42"
/>
<path stroke="#79571f" vector-effect="non-scaling-stroke" d="
  M 66.12 25.42
  L 64.85 28.71"
/>
<path stroke="#d58731" vector-effect="non-scaling-stroke" d="
  M 64.85 28.71
  C 61.04 41.22 62.10 56.92 61.99 69.86
  A 0.83 0.83 0.0 0 1 60.43 70.26
  Q 57.15 64.34 52.28 59.35"
/>
<path stroke="#c46827" vector-effect="non-scaling-stroke" d="
  M 69.73 22.26
  L 69.68 23.32"
/>
<path stroke="#e1a459" vector-effect="non-scaling-stroke" d="
  M 69.68 23.32
  Q 67.63 22.68 68.07 25.35
  A 2.04 1.86 -70.3 0 0 68.40 26.14
  L 75.18 35.63"
/>
<path stroke="#dfad67" vector-effect="non-scaling-stroke" d="
  M 75.18 35.63
  Q 77.77 42.02 83.50 46.74"
/>
<path stroke="#e1a459" vector-effect="non-scaling-stroke" d="
  M 83.50 46.74
  Q 87.05 51.60 88.68 57.10"
/>
<path stroke="#c46827" vector-effect="non-scaling-stroke" d="
  M 88.68 57.10
  Q 89.30 58.75 90.79 56.95
  Q 91.35 56.28 91.60 55.28
  Q 94.90 42.29 85.94 32.07"
/>
<path stroke="#e2aa4d" vector-effect="non-scaling-stroke" d="
  M 94.52 33.77
  L 93.94 34.23"
/>
<path stroke="#8d4920" vector-effect="non-scaling-stroke" d="
  M 93.94 34.23
  Q 93.72 34.40 93.72 34.90
  Q 93.72 35.20 93.92 35.53
  Q 99.19 44.32 104.36 52.87
  A 1.75 1.75 0.0 0 1 104.13 54.98
  C 102.66 56.52 101.02 58.19 99.04 59.38
  Q 94.35 62.17 90.51 65.97"
/>
<path stroke="#e29b3c" vector-effect="non-scaling-stroke" d="
  M 90.51 65.97
  Q 82.27 72.93 72.23 77.89
  Q 71.27 78.37 70.72 78.04
  Q 70.09 77.66 69.68 76.62"
/>
<path stroke="#673814" vector-effect="non-scaling-stroke" d="
  M 69.68 76.62
  Q 77.27 73.44 81.20 66.22
  Q 82.40 64.02 84.05 63.03
  Q 85.16 62.36 84.71 61.14
  C 82.91 56.19 79.44 51.36 77.77 48.26
  Q 74.13 41.48 69.77 35.15
  C 67.44 31.76 66.92 29.29 66.12 25.42"
/>
<path stroke="#ae9d5e" vector-effect="non-scaling-stroke" d="
  M 232.34 98.22
  Q 232.00 99.73 232.67 101.02"
/>
<path stroke="#957e42" vector-effect="non-scaling-stroke" d="
  M 232.67 101.02
  L 233.94 103.78"
/>
<path stroke="#957e42" vector-effect="non-scaling-stroke" d="
  M 234.81 107.47
  Q 234.89 108.95 234.38 109.05"
/>
<path stroke="#f5de9d" vector-effect="non-scaling-stroke" d="
  M 234.38 109.05
  Q 234.69 108.26 234.34 107.68
  Q 234.09 107.27 233.72 107.58
  L 227.62 112.69"
/>
<path stroke="#f5d662" vector-effect="non-scaling-stroke" d="
  M 227.62 112.69
  Q 215.77 111.48 204.32 109.81
  Q 204.41 109.39 203.68 109.36
  Q 196.51 109.10 189.62 107.11
  A 1.78 1.76 45.3 0 0 188.66 107.10
  Q 180.35 109.35 170.21 108.84"
/>
<path stroke="#f6e0a6" vector-effect="non-scaling-stroke" d="
  M 170.21 108.84
  Q 165.26 103.01 159.25 103.16
  Q 158.75 103.17 158.34 103.46
  C 150.68 108.93 153.78 118.90 157.35 126.14"
/>
<path stroke="#f5d662" vector-effect="non-scaling-stroke" d="
  M 157.35 126.14
  Q 155.93 128.32 154.83 128.14
  Q 147.85 127.01 140.69 125.11
  Q 140.17 124.98 140.16 125.51
  Q 139.68 142.84 142.11 160.07"
/>
<path stroke="#7b6429" vector-effect="non-scaling-stroke" d="
  M 142.11 160.07
  L 134.89 160.05"
/>
<path stroke="#f5d662" vector-effect="non-scaling-stroke" d="
  M 134.89 160.05
  L 134.79 125.49
  A 1.66 1.66 0.0 0 0 132.47 123.97
  Q 127.21 126.26 121.48 125.69
  Q 120.98 125.65 120.70 126.05
  Q 119.79 127.34 118.48 126.91"
/>
<path stroke="#f5de9d" vector-effect="non-scaling-stroke" d="
  M 118.48 126.91
  C 121.37 119.04 125.92 111.03 117.91 104.24"
/>
<path stroke="#f5d662" vector-effect="non-scaling-stroke" d="
  M 117.91 104.24
  C 118.01 101.46 114.44 101.94 112.55 102.53
  Q 107.29 104.18 101.89 105.45
  Q 101.41 105.56 100.95 105.40
  Q 99.14 104.77 97.36 105.05
  C 92.20 105.86 87.66 104.66 82.53 105.89
  Q 76.67 107.29 68.24 108.75
  C 64.90 109.33 63.56 108.52 60.62 107.75
  Q 54.77 106.21 49.17 103.83
  C 46.01 102.50 49.23 100.08 47.18 97.99"
/>
<path stroke="#e29b3c" vector-effect="non-scaling-stroke" d="
  M 49.18 84.37
  Q 50.37 86.05 50.56 88.89
  Q 50.61 89.53 51.23 89.37
  Q 55.74 88.17 57.99 85.55"
/>
<path stroke="#673814" vector-effect="non-scaling-stroke" d="
  M 212.15 31.22
  L 210.57 35.16"
/>
<path stroke="#c46827" vector-effect="non-scaling-stroke" d="
  M 210.57 35.16
  Q 207.45 35.31 205.93 37.87
  Q 205.67 38.31 205.18 38.42
  C 200.73 39.44 201.27 42.40 199.24 45.27
  Q 196.30 49.41 194.56 54.05"
/>
<path stroke="#673814" vector-effect="non-scaling-stroke" d="
  M 194.56 54.05
  Q 193.23 55.78 192.74 57.79
  Q 192.62 58.29 192.83 58.76
  C 195.06 63.83 195.17 69.74 200.27 73.03
  Q 205.08 76.13 209.82 79.48"
/>
<path stroke="#e29b3c" vector-effect="non-scaling-stroke" d="
  M 209.82 79.48
  Q 206.83 78.95 204.43 77.25
  C 201.40 75.10 197.81 75.02 194.54 72.99
  Q 188.54 69.26 182.77 65.30"
/>
<path stroke="#8d4920" vector-effect="non-scaling-stroke" d="
  M 182.77 65.30
  Q 182.97 65.27 183.05 65.24
  A 0.51 0.42 52.3 0 0 183.07 64.44
  L 172.28 55.09
  A 1.89 1.86 -56.0 0 1 171.85 52.81
  Q 176.78 43.26 184.71 33.73"
/>
<path stroke="#e2aa4d" vector-effect="non-scaling-stroke" d="
  M 184.71 33.73
  Q 183.98 33.95 184.33 33.02"
/>
<path stroke="#e29b3c" vector-effect="non-scaling-stroke" d="
  M 228.36 82.07
  L 222.59 88.33
  A 0.69 0.67 -54.0 0 1 221.78 88.47
  Q 217.40 86.10 214.12 82.57"
/>
<path stroke="#8d4920" vector-effect="non-scaling-stroke" d="
  M 213.17 79.71
  Q 213.13 77.72 212.87 75.78
  C 211.81 67.76 212.12 59.08 212.27 50.95"
/>
<path stroke="#f5eeae" vector-effect="non-scaling-stroke" d="
  M 117.91 104.24
  Q 111.76 101.74 107.18 108.87
  Q 106.91 109.28 107.04 109.76
  Q 109.18 117.66 114.81 124.04"
/>
<path stroke="#7b733a" vector-effect="non-scaling-stroke" d="
  M 114.81 124.04
  Q 112.72 122.11 110.74 120.21
  C 103.57 113.31 94.43 116.04 86.72 120.34
  C 84.26 121.71 81.41 122.30 78.83 123.74"
/>
<path stroke="#f3e88c" vector-effect="non-scaling-stroke" d="
  M 78.83 123.74
  Q 78.95 128.89 74.75 128.25
  Q 68.85 127.36 61.78 122.50"
/>
<path stroke="#f5eeae" vector-effect="non-scaling-stroke" d="
  M 61.78 122.50
  Q 54.78 115.11 48.06 107.44
  Q 46.98 106.21 45.32 105.93"
/>
<path stroke="#8e8144" vector-effect="non-scaling-stroke" d="
  M 45.32 105.93
  Q 45.69 104.89 45.41 103.47"
/>
<path stroke="#e1a459" vector-effect="non-scaling-stroke" d="
  M 207.42 31.37
  C 204.05 35.24 201.73 39.69 198.03 43.30
  Q 190.90 50.24 188.89 58.90"
/>
<path stroke="#673814" vector-effect="non-scaling-stroke" d="
  M 213.10 36.27
  L 212.27 50.95"
/>
<path stroke="#26120d" vector-effect="non-scaling-stroke" d="
  M 212.27 50.95
  Q 211.85 51.84 211.38 52.07
  A 0.40 0.39 -13.2 0 1 210.81 51.72
  L 210.88 41.01
  A 0.38 0.37 -35.5 0 0 210.15 40.89
  Q 208.73 45.02 209.09 49.07
  C 209.88 57.80 207.61 74.10 213.17 79.71"
/>
<path stroke="#673814" vector-effect="non-scaling-stroke" d="
  M 213.17 79.71
  Q 215.33 82.05 214.12 82.57"
/>
<path stroke="#7b6429" vector-effect="non-scaling-stroke" d="
  M 214.12 82.57
  L 209.82 79.48"
/>
<path stroke="#5d3114" vector-effect="non-scaling-stroke" d="
  M 194.56 54.05
  C 201.11 48.29 207.31 43.87 210.57 35.16"
/>
<path stroke="#d69d58" vector-effect="non-scaling-stroke" d="
  M 208.49 24.70
  C 201.35 27.91 183.67 40.49 185.24 49.73
  Q 186.15 55.02 188.89 58.90"
/>
<path stroke="#c46827" vector-effect="non-scaling-stroke" d="
  M 188.89 58.90
  C 189.89 61.13 191.62 62.65 192.42 64.23
  Q 193.39 66.12 194.21 68.09
  Q 194.32 68.36 194.22 68.62
  Q 194.16 68.77 194.03 68.88
  Q 193.50 69.35 193.10 68.78
  C 189.41 63.61 183.78 54.92 183.04 48.53
  Q 182.98 48.03 183.25 47.61
  L 192.30 33.72"
/>
<path stroke="#a07535" vector-effect="non-scaling-stroke" d="
  M 182.77 65.30
  Q 174.99 60.36 168.89 53.68
  Q 168.55 53.31 168.84 52.91
  L 172.88 47.20"
/>
<path stroke="#a07535" vector-effect="non-scaling-stroke" d="
  M 138.32 47.02
  Q 140.89 64.76 141.46 82.76
  C 141.89 96.41 138.98 105.19 137.31 116.81
  Q 136.98 119.13 137.10 116.79
  C 137.59 107.63 135.95 97.78 135.99 89.34
  Q 136.08 68.50 137.36 47.80"
/>
<path stroke="#a07535" vector-effect="non-scaling-stroke" d="
  M 106.05 51.74
  L 106.93 53.77
  Q 107.15 54.27 106.74 54.65
  Q 99.53 61.20 90.51 65.97"
/>
<path stroke="#7b6429" vector-effect="non-scaling-stroke" d="
  M 69.68 76.62
  L 64.87 79.88"
/>
<path stroke="#5d3114" vector-effect="non-scaling-stroke" d="
  M 64.87 79.88
  Q 65.61 77.68 68.15 76.15
  A 1.59 1.58 84.4 0 0 68.82 75.33
  Q 69.95 72.16 69.38 68.17
  Q 67.55 55.50 67.53 40.90
  C 67.52 36.44 66.35 32.70 64.85 28.71"
/>
<path stroke="#d69d58" vector-effect="non-scaling-stroke" d="
  M 88.68 57.10
  C 96.20 40.67 82.74 29.97 69.68 23.32"
/>
<path stroke="#f2e298" vector-effect="non-scaling-stroke" d="
  M 83.50 46.74
  Q 84.65 46.92 85.05 46.56
  Q 85.41 46.24 84.98 45.41
  Q 81.58 38.95 75.18 35.63"
/>
<path stroke="#f6f0b6" vector-effect="non-scaling-stroke" d="
  M 170.21 108.84
  L 173.30 110.40
  A 1.22 1.21 -45.1 0 1 173.30 112.57
  Q 171.71 113.37 169.89 113.26
  Q 169.41 113.23 169.00 113.48
  Q 164.27 116.34 164.81 120.40"
/>
<path stroke="#7c7e7e" vector-effect="non-scaling-stroke" d="
  M 164.81 120.40
  L 158.45 127.54"
/>
<path stroke="#f6f0b6" vector-effect="non-scaling-stroke" d="
  M 158.45 127.54
  L 157.72 127.49
  Q 157.14 127.44 157.23 126.87
  L 157.35 126.14"
/>
<path stroke="#94968e" vector-effect="non-scaling-stroke" d="
  M 234.38 109.05
  Q 238.36 125.03 238.50 141.43
  C 238.54 145.57 236.71 148.69 235.07 152.35"
/>
<path stroke="#f2f3de" vector-effect="non-scaling-stroke" d="
  M 235.07 152.35
  L 231.37 150.91
  Q 230.92 150.74 230.45 150.88
  Q 227.68 151.73 224.09 154.12
  Q 221.89 155.59 215.57 158.35
  C 214.41 158.86 213.36 160.04 211.86 160.28
  Q 211.23 160.38 210.71 160.75
  L 203.07 166.29
  A 1.41 1.40 -12.3 0 0 202.52 167.14
  Q 201.80 170.63 198.54 171.72"
/>
<path stroke="#94968e" vector-effect="non-scaling-stroke" d="
  M 198.54 171.72
  Q 197.89 171.70 197.53 172.01"
/>
<path stroke="#f2f1c8" vector-effect="non-scaling-stroke" d="
  M 197.53 172.01
  Q 196.34 171.93 196.13 170.75
  Q 196.02 170.18 195.48 170.39
  C 189.99 172.48 184.99 171.99 179.74 172.94
  C 176.30 173.56 176.34 171.55 175.92 168.97
  C 175.70 167.59 174.34 161.06 175.99 159.30
  A 1.13 1.12 -66.5 0 1 176.87 158.95
  Q 178.13 159.03 178.82 158.21
  Q 179.10 157.89 179.52 157.84
  Q 183.95 157.38 187.64 155.12
  C 192.20 152.33 196.63 151.70 195.21 144.57
  C 195.04 143.74 195.56 142.34 196.27 141.63
  C 201.10 136.77 205.58 131.77 211.16 127.72
  Q 214.73 125.14 217.50 121.45"
/>
<path stroke="#f5eeae" vector-effect="non-scaling-stroke" d="
  M 227.62 112.69
  L 217.50 121.45"
/>
<path stroke="#f3e88c" vector-effect="non-scaling-stroke" d="
  M 217.50 121.45
  L 210.46 126.85
  Q 210.01 127.19 209.48 127.04
  Q 205.67 126.00 202.05 127.61
  A 1.28 1.26 -49.2 0 1 201.19 127.68
  Q 198.17 126.90 196.66 124.53"
/>
<path stroke="#7b733a" vector-effect="non-scaling-stroke" d="
  M 196.66 124.53
  Q 194.51 122.77 191.52 122.65
  Q 191.02 122.63 190.59 122.35
  C 182.19 116.98 173.98 113.32 164.81 120.40"
/>
<path stroke="#929283" vector-effect="non-scaling-stroke" d="
  M 218.84 197.08
  Q 218.92 191.28 220.31 187.56
  Q 225.25 174.38 235.07 152.35"
/>
<path stroke="#343a36" vector-effect="non-scaling-stroke" d="
  M 150.87 183.00
  Q 147.06 187.78 141.19 189.64
  A 1.47 1.47 0.0 0 0 141.29 192.47
  Q 146.61 193.77 152.99 195.03
  Q 153.77 195.18 154.52 194.82"
/>
<path stroke="#6e6a58" vector-effect="non-scaling-stroke" d="
  M 181.22 182.08
  Q 181.93 183.09 181.72 183.99
  C 178.92 196.01 170.70 198.54 160.12 200.17
  Q 159.60 200.25 159.24 200.62
  C 157.94 201.94 157.24 203.24 155.74 204.24
  C 142.74 212.94 129.85 211.88 117.08 203.66
  C 107.64 197.58 98.23 197.32 93.96 185.01
  Q 93.42 183.45 92.63 182.54"
/>
<path stroke="#5e5e51" vector-effect="non-scaling-stroke" d="
  M 111.58 193.99
  C 116.92 195.62 119.34 196.12 123.76 194.69"
/>
<path stroke="#343a36" vector-effect="non-scaling-stroke" d="
  M 123.76 194.69
  Q 131.26 192.44 138.26 192.56
  A 1.10 1.10 0.0 0 0 139.06 190.68
  L 138.25 189.88
  Q 137.88 189.51 137.41 189.73
  Q 136.19 190.30 135.01 189.73
  C 123.99 184.44 120.83 179.65 121.70 167.19"
/>
<path stroke="#aeac6f" vector-effect="non-scaling-stroke" d="
  M 162.23 141.63
  L 163.22 146.10"
/>
<path stroke="#f5eeae" vector-effect="non-scaling-stroke" d="
  M 163.22 146.10
  Q 156.52 155.78 152.92 165.85"
/>
<path stroke="#7b733a" vector-effect="non-scaling-stroke" d="
  M 152.92 165.85
  Q 149.27 161.27 142.11 160.07"
/>
<path stroke="#7b733a" vector-effect="non-scaling-stroke" d="
  M 134.89 160.05
  Q 125.87 160.87 121.70 167.19"
/>
<path stroke="#aeac6f" vector-effect="non-scaling-stroke" d="
  M 121.70 167.19
  L 121.06 170.93"
/>
<path stroke="#f6f0b6" vector-effect="non-scaling-stroke" d="
  M 121.06 170.93
  Q 121.22 162.77 116.40 154.64"
/>
<path stroke="#f5eeae" vector-effect="non-scaling-stroke" d="
  M 118.48 126.91
  Q 119.63 128.62 118.26 129.26"
/>
<path stroke="#7a7c75" vector-effect="non-scaling-stroke" d="
  M 118.26 129.26
  L 114.81 124.04"
/>
<path stroke="#8e897f" vector-effect="non-scaling-stroke" d="
  M 45.32 105.93
  Q 45.00 107.32 44.64 107.22"
/>
<path stroke="#474840" vector-effect="non-scaling-stroke" d="
  M 44.64 107.22
  Q 44.06 107.62 44.19 109.88"
/>
<path stroke="#7b733a" vector-effect="non-scaling-stroke" d="
  M 118.26 129.26
  C 120.80 132.54 116.40 135.77 113.99 137.46"
/>
<path stroke="#787654" vector-effect="non-scaling-stroke" d="
  M 113.99 137.46
  C 101.51 144.57 85.99 139.45 84.95 123.71
  A 0.42 0.42 0.0 0 0 84.40 123.34
  Q 81.48 124.31 78.83 123.74"
/>
<path stroke="#f2f1c8" vector-effect="non-scaling-stroke" d="
  M 61.78 122.50
  C 64.31 126.55 68.13 130.68 69.70 135.11
  C 70.68 137.85 72.83 138.50 73.94 140.90
  Q 74.14 141.32 74.56 141.53
  Q 78.71 143.63 79.99 147.96
  C 82.75 157.34 97.62 152.71 98.40 165.48
  Q 98.44 166.09 99.06 166.11
  L 103.18 166.24"
/>
<path stroke="#d8d8c5" vector-effect="non-scaling-stroke" d="
  M 103.18 166.24
  L 100.52 179.90"
/>
<path stroke="#7a7c75" vector-effect="non-scaling-stroke" d="
  M 100.52 179.90
  Q 97.74 178.32 95.04 179.21
  Q 94.56 179.37 94.29 179.80
  L 92.63 182.54"
/>
<path stroke="#e8e4cc" vector-effect="non-scaling-stroke" d="
  M 92.63 182.54
  Q 91.08 181.51 90.06 179.88"
/>
<path stroke="#aeb5aa" vector-effect="non-scaling-stroke" d="
  M 90.06 179.88
  Q 84.91 175.14 79.01 172.23"
/>
<path stroke="#edebd4" vector-effect="non-scaling-stroke" d="
  M 79.01 172.23
  Q 76.70 170.17 72.75 169.91
  Q 70.91 169.79 70.87 171.49
  C 70.84 173.14 72.27 174.79 72.37 176.18
  C 72.65 179.89 72.98 183.43 74.22 187.06
  C 75.79 191.64 77.78 195.90 77.88 200.89
  Q 78.09 210.38 79.54 217.24
  Q 80.07 219.74 79.07 221.14
  Q 78.89 221.39 78.98 221.68
  Q 79.03 221.83 79.01 221.99
  Q 78.96 222.48 78.60 222.15
  Q 78.04 221.64 77.51 221.81"
/>
<path stroke="#94968e" vector-effect="non-scaling-stroke" d="
  M 67.05 212.99
  C 63.02 208.13 63.02 201.38 62.63 195.01
  C 62.33 190.14 60.15 184.45 58.01 180.00
  Q 50.41 164.23 42.56 148.58
  C 39.86 143.17 41.95 126.17 42.59 121.81
  Q 43.75 113.97 43.94 110.66"
/>
<path stroke="#aeb5aa" vector-effect="non-scaling-stroke" d="
  M 44.14 110.37
  Q 45.07 109.05 44.64 107.22"
/>
<path stroke="#f3e88c" vector-effect="non-scaling-stroke" d="
  M 113.99 137.46
  Q 115.52 139.98 113.18 141.19
  Q 109.93 142.88 110.48 145.56
  C 111.35 149.79 116.50 149.00 116.40 154.64"
/>
<path stroke="#f4f3d0" vector-effect="non-scaling-stroke" d="
  M 116.40 154.64
  L 111.15 149.01
  Q 110.69 148.52 110.28 149.05
  Q 107.73 152.38 106.28 156.70"
/>
<path stroke="#d6d3a3" vector-effect="non-scaling-stroke" d="
  M 106.28 156.70
  Q 103.89 160.86 103.18 166.24"
/>
<path stroke="#787654" vector-effect="non-scaling-stroke" d="
  M 196.66 124.53
  L 191.55 124.39
  Q 191.05 124.38 190.94 124.86
  Q 189.54 130.77 189.00 132.28
  C 185.35 142.46 171.49 142.85 162.82 139.64"
/>
<path stroke="#7b733a" vector-effect="non-scaling-stroke" d="
  M 162.82 139.64
  Q 153.57 135.54 158.45 127.54"
/>
<path stroke="#92906d" vector-effect="non-scaling-stroke" d="
  M 197.53 172.01
  L 181.77 181.56"
/>
<path stroke="#e6dfab" vector-effect="non-scaling-stroke" d="
  M 181.77 181.56
  Q 181.75 181.71 181.22 182.08"
/>
<path stroke="#787654" vector-effect="non-scaling-stroke" d="
  M 181.22 182.08
  C 179.83 179.82 176.00 180.66 173.78 181.53"
/>
<path stroke="#acaf89" vector-effect="non-scaling-stroke" d="
  M 173.78 181.53
  Q 172.19 160.50 162.23 141.63"
/>
<path stroke="#f3e88c" vector-effect="non-scaling-stroke" d="
  M 162.23 141.63
  Q 162.05 140.35 162.82 139.64"
/>
<path stroke="#ebe8c9" vector-effect="non-scaling-stroke" d="
  M 188.76 232.36
  Q 187.28 232.16 189.41 230.47
  Q 189.81 230.15 189.90 229.64
  C 190.56 226.10 188.84 224.89 185.85 222.68
  C 181.16 219.21 184.58 213.59 187.48 209.55
  C 189.97 206.08 188.17 202.52 189.35 198.61
  C 190.90 193.49 191.50 188.20 192.96 183.03
  C 193.59 180.82 195.28 179.37 196.80 177.77
  Q 197.11 177.43 197.19 176.97
  Q 197.59 174.61 196.66 173.36"
/>
<path stroke="#929283" vector-effect="non-scaling-stroke" d="
  M 196.66 173.36
  L 198.54 171.72"
/>
<path stroke="#888471" vector-effect="non-scaling-stroke" d="
  M 185.88 180.22
  Q 183.00 182.24 181.77 181.56"
/>
<path stroke="#7a7c75" vector-effect="non-scaling-stroke" d="
  M 172.40 183.51
  C 171.04 187.94 168.00 193.96 162.63 194.21
  C 159.91 194.34 157.22 194.65 154.52 194.82"
/>
<path stroke="#aeb5aa" vector-effect="non-scaling-stroke" d="
  M 154.52 194.82
  Q 154.18 194.78 154.06 194.67
  Q 153.96 194.57 154.13 194.31
  Q 155.14 192.73 154.15 191.07
  Q 153.89 190.65 154.09 190.19
  C 155.71 186.50 151.69 185.96 150.87 183.00"
/>
<path stroke="#7a7c75" vector-effect="non-scaling-stroke" d="
  M 150.87 183.00
  C 154.91 177.81 154.81 172.33 152.92 165.85"
/>
<path stroke="#afb7b3" vector-effect="non-scaling-stroke" d="
  M 121.06 170.93
  Q 119.76 179.95 125.68 187.35"
/>
<path stroke="#dadacd" vector-effect="non-scaling-stroke" d="
  M 125.68 187.35
  L 123.63 191.07
  Q 123.31 191.65 122.66 191.52
  L 119.74 190.91
  A 0.92 0.90 -57.0 0 0 118.99 191.08
  L 117.62 192.11
  A 1.31 1.26 31.6 0 1 116.58 192.34
  Q 111.92 191.37 111.58 193.99"
/>
<path stroke="#7c7e7e" vector-effect="non-scaling-stroke" d="
  M 111.58 193.99
  C 105.11 194.36 104.24 189.18 102.72 183.49"
/>
<path stroke="#dadacd" vector-effect="non-scaling-stroke" d="
  M 102.72 183.49
  Q 102.52 170.04 106.28 156.70"
/>
<path stroke="#343a36" vector-effect="non-scaling-stroke" d="
  M 173.78 181.53
  Q 173.40 182.86 172.40 183.51"
/>
<path stroke="#aeb5aa" vector-effect="non-scaling-stroke" d="
  M 172.40 183.51
  Q 172.97 163.17 163.22 146.10"
/>
<path stroke="#929786" vector-effect="non-scaling-stroke" d="
  M 123.76 194.69
  Q 124.32 192.92 126.77 188.49
  Q 127.38 187.40 125.68 187.35"
/>
<path stroke="#5e5e51" vector-effect="non-scaling-stroke" d="
  M 102.72 183.49
  Q 100.77 181.20 100.52 179.90"
/>
<path stroke="#a7aa95" vector-effect="non-scaling-stroke" d="
  M 79.01 172.23
  L 88.40 180.09"
/>
<path stroke="#e1d9b7" vector-effect="non-scaling-stroke" d="
  M 88.40 180.09
  Q 84.42 181.08 81.30 177.47
  Q 79.81 175.75 78.37 175.21
  A 0.30 0.30 0.0 0 0 78.03 175.68
  Q 83.39 182.43 91.96 183.19
  A 0.50 0.49 -68.2 0 1 92.30 183.99
  L 91.07 185.49
  Q 90.75 185.89 91.00 186.34
  Q 93.05 190.12 95.48 193.75
  C 97.50 196.76 100.64 198.48 102.47 202.12
  Q 104.27 205.70 105.13 207.00
  Q 107.69 210.83 109.53 215.07
  C 111.73 220.11 117.68 224.93 121.61 228.78
  C 125.17 232.25 128.48 233.62 133.06 234.84
  C 140.04 236.70 151.02 229.10 155.80 224.81
  Q 159.18 221.76 169.51 209.50
  Q 174.24 203.89 177.90 197.46
  A 1.08 1.07 -37.0 0 0 178.01 196.70
  Q 177.65 194.99 179.35 194.62
  Q 179.82 194.52 180.09 194.12
  C 181.18 192.50 181.31 190.95 182.70 189.63
  C 185.79 186.73 193.28 181.67 194.16 178.91
  A 0.40 0.40 0.0 0 0 193.52 178.49
  L 188.53 182.96
  A 0.88 0.87 -53.0 0 1 187.56 183.10
  Q 186.38 182.55 185.88 180.22"
/>
<path stroke="#8d8b79" vector-effect="non-scaling-stroke" d="
  M 185.88 180.22
  L 196.66 173.36"
/>
<path stroke="#a2a38d" vector-effect="non-scaling-stroke" d="
  M 90.06 179.88
  Q 89.38 180.60 88.40 180.09"
/>
<path stroke="#343a36" vector-effect="non-scaling-stroke" d="
  M 95.60 125.26
  Q 96.26 125.38 96.96 124.22"
/>
<path stroke="#7a7c75" vector-effect="non-scaling-stroke" d="
  M 96.96 124.22
  Q 98.69 124.28 99.85 123.78
  A 0.33 0.33 0.0 0 0 99.78 123.16
  Q 96.19 122.53 93.24 124.57
  Q 92.83 124.86 92.77 125.35
  Q 92.49 127.69 94.20 129.33
  Q 94.63 129.74 95.21 129.60
  L 98.45 128.80
  A 0.55 0.54 -55.6 0 0 98.25 127.73
  L 95.79 128.06
  A 0.64 0.64 0.0 0 1 95.07 127.49
  Q 94.96 126.39 95.60 125.26"
/>
<path stroke="#aeb5aa" vector-effect="non-scaling-stroke" d="
  M 96.96 124.22
  Q 96.28 124.15 95.70 124.34
  Q 95.34 124.45 95.36 124.69
  Q 95.38 124.92 95.60 125.26"
/>
<path stroke="#5e5e51" vector-effect="non-scaling-stroke" d="
  M 110.46 126.48
  Q 110.05 129.97 107.91 132.69
  A 0.17 0.17 0.0 0 0 108.16 132.92
  Q 110.95 130.32 111.05 126.53
  A 0.30 0.29 49.5 0 0 110.46 126.48"
/>
<path stroke="#343a36" vector-effect="non-scaling-stroke" d="
  M 169.41 123.05
  C 167.04 125.79 165.72 131.63 168.80 134.45
  Q 169.08 134.71 169.32 134.42
  Q 169.57 134.12 169.32 133.83
  C 166.77 130.89 168.12 126.41 169.53 123.35"
/>
<path stroke="#1a1b1a" vector-effect="non-scaling-stroke" d="
  M 169.53 123.35
  Q 172.54 120.81 176.06 119.84
  A 0.20 0.20 0.0 0 0 175.99 119.44
  Q 171.96 119.70 169.41 123.05"
/>
<path stroke="#4e544f" vector-effect="non-scaling-stroke" d="
  M 169.53 123.35
  Q 169.47 123.20 169.41 123.05"
/>
<path stroke="#7a7c75" vector-effect="non-scaling-stroke" d="
  M 182.74 129.27
  L 185.02 125.48
  A 0.69 0.69 0.0 0 0 184.78 124.54
  L 184.69 124.48
  A 2.88 2.81 31.0 0 0 180.77 125.41
  L 180.68 125.56
  A 2.88 2.81 31.0 0 0 181.70 129.45
  L 181.79 129.51
  A 0.69 0.69 0.0 0 0 182.74 129.27"
/>
<path stroke="#1a1b1a" vector-effect="non-scaling-stroke" d="
  M 169.03 129.19
  A 0.35 0.35 0.0 0 0 169.69 129.40
  Q 169.96 128.73 169.96 128.07
  A 0.34 0.34 0.0 0 0 169.29 128.00
  L 169.03 129.19"
/>
<path stroke="#1a1b1a" vector-effect="non-scaling-stroke" d="
  M 178.5400 137.4971
  A 2.02 0.45 0.2 0 0 176.5216 137.0400
  A 2.02 0.45 0.2 0 0 174.5000 137.4829
  A 2.02 0.45 0.2 0 0 176.5184 137.9400
  A 2.02 0.45 0.2 0 0 178.5400 137.4971"
/>
<path stroke="#d8d8c5" vector-effect="non-scaling-stroke" d="
  M 158.23 191.09
  A 0.44 0.44 0.0 0 0 157.77 191.78
  Q 158.02 192.09 157.97 192.51
  A 0.85 0.69 -41.4 0 0 159.51 192.45
  Q 159.71 191.50 158.23 191.09"
/>
<path stroke="#140f0b" vector-effect="non-scaling-stroke" d="
  M 129.82 169.92
  L 132.70 167.57
  A 0.47 0.47 0.0 0 0 132.77 166.91
  L 132.67 166.79
  A 2.22 2.13 -39.2 0 0 129.60 166.54
  L 129.43 166.68
  A 2.22 2.13 -39.2 0 0 129.06 169.73
  L 129.16 169.86
  A 0.47 0.47 0.0 0 0 129.82 169.92"
/>
<path stroke="#1a1b1a" vector-effect="non-scaling-stroke" d="
  M 147.85 169.07
  L 151.73 171.10
  A 0.12 0.12 0.0 0 0 151.90 171.05
  L 151.92 170.99
  A 2.16 1.88 27.6 0 0 150.88 168.33
  L 150.61 168.19
  A 2.16 1.88 27.6 0 0 147.83 168.85
  L 147.80 168.91
  A 0.12 0.12 0.0 0 0 147.85 169.07"
/>
<path stroke="#5e5e51" vector-effect="non-scaling-stroke" d="
  M 112.01 198.26
  C 116.86 201.53 121.92 205.74 127.14 207.42
  C 137.98 210.93 149.55 208.32 157.74 200.22
  Q 158.31 199.65 157.51 199.71
  C 145.35 200.60 134.37 202.00 121.78 199.74"
/>
<path stroke="#343a36" vector-effect="non-scaling-stroke" d="
  M 121.78 199.74
  L 119.22 197.84"
/>
<path stroke="#7c7e7e" vector-effect="non-scaling-stroke" d="
  M 119.22 197.84
  C 115.13 195.61 111.01 195.76 106.68 194.85
  A 3.28 3.28 0.0 0 1 104.24 192.73
  C 103.33 190.22 100.75 179.50 96.73 181.24
  Q 96.28 181.43 96.18 181.90
  C 94.26 190.46 105.01 197.31 112.01 198.26"
/>
<path stroke="#afb7b3" vector-effect="non-scaling-stroke" d="
  M 119.22 197.84
  Q 118.53 198.78 115.48 198.17"
/>
<path stroke="#dadacd" vector-effect="non-scaling-stroke" d="
  M 115.48 198.17
  L 112.01 198.26"
/>
<path stroke="#929786" vector-effect="non-scaling-stroke" d="
  M 121.78 199.74
  Q 119.27 199.75 116.83 199.75
  Q 116.05 199.75 115.77 199.43
  Q 115.39 199.00 115.48 198.17"
/>
<path stroke="#6e6a58" vector-effect="non-scaling-stroke" d="
  M 173.75 185.42
  C 169.07 196.52 162.82 196.00 152.23 197.36
  A 0.53 0.53 0.0 0 0 152.27 198.41
  C 163.31 198.87 176.82 198.07 179.93 185.08
  Q 180.43 183.01 178.34 182.60
  C 175.89 182.12 174.70 183.15 173.75 185.42"
/>
<path stroke="#ccc6a8" vector-effect="non-scaling-stroke" d="
  M 158.31 205.11
  L 163.25 202.29
  A 0.23 0.23 0.0 0 0 163.07 201.87
  Q 160.25 202.70 158.02 204.72
  A 0.25 0.24 8.6 0 0 158.31 205.11"
/>
</g>
<path fill="#271c15" d="
  M 118.01 31.13
  L 115.25 31.24
  A 0.26 0.26 0.0 0 0 115.00 31.54
  Q 115.03 31.69 115.19 31.69
  Q 135.16 32.42 155.08 31.33
  L 184.22 31.06
  A 0.67 0.67 0.0 0 0 184.86 30.54
  Q 185.32 28.52 187.30 27.89
  Q 187.89 27.71 188.28 27.23
  C 194.66 19.40 201.26 9.54 209.90 4.19
  Q 210.31 3.94 210.73 4.19
  Q 212.07 5.00 213.51 5.16
  Q 213.33 5.18 213.17 5.23
  Q 212.69 5.36 213.10 5.64
  Q 220.31 10.55 221.70 19.23
  A 1.31 1.28 -77.6 0 0 222.23 20.08
  Q 222.71 20.41 222.96 20.83
  L 223.00 23.34
  A 1.70 1.70 0.0 0 0 223.28 24.24
  Q 225.38 27.42 224.99 31.23
  Q 224.94 31.69 225.19 32.09
  C 226.39 34.02 225.55 35.34 226.22 37.13
  C 227.44 40.38 227.01 43.77 227.00 47.21
  C 226.99 52.21 228.43 57.60 227.90 63.19
  A 1.31 1.29 -61.4 0 0 228.15 64.07
  C 229.48 65.87 228.71 67.69 230.00 69.66
  Q 230.26 70.06 230.21 70.53
  Q 229.22 81.94 231.03 88.48
  Q 232.96 95.48 233.08 98.48
  L 232.34 98.22
  L 228.36 82.07
  Q 228.99 72.94 226.74 63.51
  C 226.49 54.15 223.55 8.98 211.63 7.44
  C 205.93 6.71 193.40 23.60 189.09 29.04
  L 184.33 33.02
  Q 173.22 32.14 162.23 32.82
  C 143.69 33.96 125.14 33.47 106.58 33.25
  C 102.82 33.21 98.52 33.72 94.52 33.77
  L 93.82 33.75
  A 0.89 0.89 0.0 0 1 93.14 33.38
  L 90.05 28.99
  Q 86.32 24.37 82.98 19.45
  C 79.65 14.54 72.01 7.29 64.97 6.09
  A 1.41 1.40 -56.7 0 0 63.97 6.30
  Q 61.90 7.64 61.27 9.29
  Q 52.05 33.38 52.28 59.35
  L 51.39 72.26
  A 1.40 1.39 27.7 0 0 51.70 73.24
  Q 54.02 76.04 54.25 79.12
  Q 52.97 76.76 51.56 75.77
  Q 51.08 75.42 50.96 76.01
  L 49.18 84.37
  L 47.18 97.99
  L 46.09 100.51
  Q 45.63 97.79 46.34 95.43
  C 47.19 92.61 46.98 91.01 47.01 88.35
  C 47.03 86.17 48.33 84.36 47.96 81.82
  A 1.64 1.56 -38.0 0 1 48.10 80.87
  C 49.52 77.90 48.17 74.75 49.73 72.46
  Q 49.99 72.07 49.99 71.60
  C 50.02 66.66 49.86 62.50 50.61 57.23
  C 51.24 52.85 49.99 46.03 51.94 42.36
  A 1.59 1.58 53.8 0 0 52.10 41.30
  Q 51.47 37.93 52.86 34.91
  A 2.04 1.98 -37.2 0 0 53.03 33.79
  C 52.71 31.65 54.14 29.81 53.99 27.50
  A 1.46 1.44 60.0 0 1 54.22 26.62
  C 55.39 24.86 54.88 23.02 55.35 21.22
  C 56.58 16.62 59.35 7.12 62.70 4.79
  C 64.58 3.48 69.96 3.63 71.88 4.85
  C 75.65 7.24 77.86 11.01 80.70 13.96
  Q 84.16 17.57 86.40 22.09
  Q 86.62 22.53 87.05 22.80
  Q 88.15 23.49 89.22 25.53
  C 92.71 32.21 100.61 32.94 107.24 31.58
  Q 112.47 30.51 118.01 31.13
  Z"
/>
<path fill="#67736b" d="
  M 213.51 5.16
  C 218.61 6.26 222.36 16.16 222.96 20.83
  Q 222.71 20.41 222.23 20.08
  A 1.31 1.28 -77.6 0 1 221.70 19.23
  Q 220.31 10.55 213.10 5.64
  Q 212.69 5.36 213.17 5.23
  Q 213.33 5.18 213.51 5.16
  Z"
/>
<path fill="#f1ac3c" d="
  M 90.05 28.99
  Q 88.44 31.82 85.94 32.07
  C 83.71 29.71 73.02 20.67 69.73 22.26
  Q 69.32 22.32 68.84 21.84
  Q 68.48 21.47 68.10 21.83
  Q 66.21 23.64 66.12 25.42
  L 64.85 28.71
  C 61.04 41.22 62.10 56.92 61.99 69.86
  A 0.83 0.83 0.0 0 1 60.43 70.26
  Q 57.15 64.34 52.28 59.35
  Q 52.05 33.38 61.27 9.29
  Q 61.90 7.64 63.97 6.30
  A 1.41 1.40 -56.7 0 1 64.97 6.09
  C 72.01 7.29 79.65 14.54 82.98 19.45
  Q 86.32 24.37 90.05 28.99
  Z"
/>
<path fill="#f1ac3c" d="
  M 226.74 63.51
  Q 221.28 68.22 217.80 73.67
  A 0.47 0.47 0.0 0 1 216.96 73.25
  C 217.43 71.99 217.99 70.84 217.96 69.43
  Q 217.62 52.19 217.16 35.00
  A 0.89 0.89 0.0 0 0 215.43 34.72
  C 214.01 38.73 215.06 45.02 215.51 49.23
  A 0.35 0.34 72.5 0 1 215.34 49.56
  L 214.79 49.89
  A 0.60 0.60 0.0 0 0 214.50 50.51
  Q 214.56 50.88 214.30 51.07
  Q 213.99 51.31 213.97 50.92
  L 213.10 36.27
  L 212.15 31.22
  L 207.42 31.37
  Q 209.13 29.26 210.56 26.88
  Q 211.60 25.14 208.49 24.70
  Q 209.44 24.32 209.54 23.77
  Q 209.67 23.06 208.94 23.13
  C 203.45 23.70 195.45 30.54 192.30 33.72
  L 189.09 29.04
  C 193.40 23.60 205.93 6.71 211.63 7.44
  C 223.55 8.98 226.49 54.15 226.74 63.51
  Z"
/>
<path fill="#ce6f27" d="
  M 69.73 22.26
  L 69.68 23.32
  Q 67.63 22.68 68.07 25.35
  A 2.04 1.86 -70.3 0 0 68.40 26.14
  L 75.18 35.63
  Q 77.77 42.02 83.50 46.74
  Q 87.05 51.60 88.68 57.10
  Q 89.30 58.75 90.79 56.95
  Q 91.35 56.28 91.60 55.28
  Q 94.90 42.29 85.94 32.07
  Q 88.44 31.82 90.05 28.99
  L 93.14 33.38
  A 0.89 0.89 0.0 0 0 93.82 33.75
  L 94.52 33.77
  L 93.94 34.23
  Q 93.72 34.40 93.72 34.90
  Q 93.72 35.20 93.92 35.53
  Q 99.19 44.32 104.36 52.87
  A 1.75 1.75 0.0 0 1 104.13 54.98
  C 102.66 56.52 101.02 58.19 99.04 59.38
  Q 94.35 62.17 90.51 65.97
  Q 82.27 72.93 72.23 77.89
  Q 71.27 78.37 70.72 78.04
  Q 70.09 77.66 69.68 76.62
  Q 77.27 73.44 81.20 66.22
  Q 82.40 64.02 84.05 63.03
  Q 85.16 62.36 84.71 61.14
  C 82.91 56.19 79.44 51.36 77.77 48.26
  Q 74.13 41.48 69.77 35.15
  C 67.44 31.76 66.92 29.29 66.12 25.42
  Q 66.21 23.64 68.10 21.83
  Q 68.48 21.47 68.84 21.84
  Q 69.32 22.32 69.73 22.26
  Z"
/>
<path fill="#b96126" d="
  M 85.94 32.07
  Q 94.90 42.29 91.60 55.28
  Q 91.35 56.28 90.79 56.95
  Q 89.30 58.75 88.68 57.10
  C 96.20 40.67 82.74 29.97 69.68 23.32
  L 69.73 22.26
  C 73.02 20.67 83.71 29.71 85.94 32.07
  Z"
/>
<path fill="#f3d88a" d="
  M 69.68 23.32
  C 82.74 29.97 96.20 40.67 88.68 57.10
  Q 87.05 51.60 83.50 46.74
  Q 84.65 46.92 85.05 46.56
  Q 85.41 46.24 84.98 45.41
  Q 81.58 38.95 75.18 35.63
  L 68.40 26.14
  A 2.04 1.86 -70.3 0 1 68.07 25.35
  Q 67.63 22.68 69.68 23.32
  Z"
/>
<path fill="#b96126" d="
  M 208.49 24.70
  C 201.35 27.91 183.67 40.49 185.24 49.73
  Q 186.15 55.02 188.89 58.90
  C 189.89 61.13 191.62 62.65 192.42 64.23
  Q 193.39 66.12 194.21 68.09
  Q 194.32 68.36 194.22 68.62
  Q 194.16 68.77 194.03 68.88
  Q 193.50 69.35 193.10 68.78
  C 189.41 63.61 183.78 54.92 183.04 48.53
  Q 182.98 48.03 183.25 47.61
  L 192.30 33.72
  C 195.45 30.54 203.45 23.70 208.94 23.13
  Q 209.67 23.06 209.54 23.77
  Q 209.44 24.32 208.49 24.70
  Z"
/>
<path fill="#f3d88a" d="
  M 208.49 24.70
  Q 211.60 25.14 210.56 26.88
  Q 209.13 29.26 207.42 31.37
  C 204.05 35.24 201.73 39.69 198.03 43.30
  Q 190.90 50.24 188.89 58.90
  Q 186.15 55.02 185.24 49.73
  C 183.67 40.49 201.35 27.91 208.49 24.70
  Z"
/>
<path fill="#000101" d="
  M 66.12 25.42
  C 66.92 29.29 67.44 31.76 69.77 35.15
  Q 74.13 41.48 77.77 48.26
  C 79.44 51.36 82.91 56.19 84.71 61.14
  Q 85.16 62.36 84.05 63.03
  Q 82.40 64.02 81.20 66.22
  Q 77.27 73.44 69.68 76.62
  L 64.87 79.88
  Q 65.61 77.68 68.15 76.15
  A 1.59 1.58 84.4 0 0 68.82 75.33
  Q 69.95 72.16 69.38 68.17
  Q 67.55 55.50 67.53 40.90
  C 67.52 36.44 66.35 32.70 64.85 28.71
  L 66.12 25.42
  Z"
/>
<path fill="#b96126" d="
  M 64.85 28.71
  C 66.35 32.70 67.52 36.44 67.53 40.90
  Q 67.55 55.50 69.38 68.17
  Q 69.95 72.16 68.82 75.33
  A 1.59 1.58 84.4 0 1 68.15 76.15
  Q 65.61 77.68 64.87 79.88
  L 57.99 85.55
  Q 55.49 82.82 54.25 79.12
  Q 54.02 76.04 51.70 73.24
  A 1.40 1.39 27.7 0 1 51.39 72.26
  L 52.28 59.35
  Q 57.15 64.34 60.43 70.26
  A 0.83 0.83 0.0 0 0 61.99 69.86
  C 62.10 56.92 61.04 41.22 64.85 28.71
  Z"
/>
<path fill="#ce6f27" d="
  M 189.09 29.04
  L 192.30 33.72
  L 183.25 47.61
  Q 182.98 48.03 183.04 48.53
  C 183.78 54.92 189.41 63.61 193.10 68.78
  Q 193.50 69.35 194.03 68.88
  Q 194.16 68.77 194.22 68.62
  Q 194.32 68.36 194.21 68.09
  Q 193.39 66.12 192.42 64.23
  C 191.62 62.65 189.89 61.13 188.89 58.90
  Q 190.90 50.24 198.03 43.30
  C 201.73 39.69 204.05 35.24 207.42 31.37
  L 212.15 31.22
  L 210.57 35.16
  Q 207.45 35.31 205.93 37.87
  Q 205.67 38.31 205.18 38.42
  C 200.73 39.44 201.27 42.40 199.24 45.27
  Q 196.30 49.41 194.56 54.05
  Q 193.23 55.78 192.74 57.79
  Q 192.62 58.29 192.83 58.76
  C 195.06 63.83 195.17 69.74 200.27 73.03
  Q 205.08 76.13 209.82 79.48
  Q 206.83 78.95 204.43 77.25
  C 201.40 75.10 197.81 75.02 194.54 72.99
  Q 188.54 69.26 182.77 65.30
  Q 182.97 65.27 183.05 65.24
  A 0.51 0.42 52.3 0 0 183.07 64.44
  L 172.28 55.09
  A 1.89 1.86 -56.0 0 1 171.85 52.81
  Q 176.78 43.26 184.71 33.73
  Q 183.98 33.95 184.33 33.02
  L 189.09 29.04
  Z"
/>
<path fill="#343533" d="
  M 118.01 31.13
  L 155.08 31.33
  Q 135.16 32.42 115.19 31.69
  Q 115.03 31.69 115.00 31.54
  A 0.26 0.26 0.0 0 1 115.25 31.24
  L 118.01 31.13
  Z"
/>
<path fill="#000101" d="
  M 212.15 31.22
  L 213.10 36.27
  L 212.27 50.95
  Q 211.85 51.84 211.38 52.07
  A 0.40 0.39 -13.2 0 1 210.81 51.72
  L 210.88 41.01
  A 0.38 0.37 -35.5 0 0 210.15 40.89
  Q 208.73 45.02 209.09 49.07
  C 209.88 57.80 207.61 74.10 213.17 79.71
  Q 215.33 82.05 214.12 82.57
  L 209.82 79.48
  Q 205.08 76.13 200.27 73.03
  C 195.17 69.74 195.06 63.83 192.83 58.76
  Q 192.62 58.29 192.74 57.79
  Q 193.23 55.78 194.56 54.05
  C 201.11 48.29 207.31 43.87 210.57 35.16
  L 212.15 31.22
  Z"
/>
<path fill="#f5e572" d="
  M 184.33 33.02
  Q 183.98 33.95 184.71 33.73
  Q 177.50 39.27 172.88 47.20
  C 169.67 47.21 167.09 48.57 164.83 47.90
  C 158.01 45.90 149.15 45.08 142.39 47.15
  C 141.16 47.53 139.00 46.62 138.32 47.02
  L 137.92 45.70
  Q 137.65 44.78 137.56 45.73
  L 137.36 47.80
  Q 129.23 47.70 120.93 48.30
  C 118.72 48.46 116.17 49.57 113.36 49.20
  Q 112.86 49.13 112.38 49.32
  L 106.05 51.74
  L 93.94 34.23
  L 94.52 33.77
  C 98.52 33.72 102.82 33.21 106.58 33.25
  C 125.14 33.47 143.69 33.96 162.23 32.82
  Q 173.22 32.14 184.33 33.02
  Z"
/>
<path fill="#4b2318" d="
  M 184.71 33.73
  Q 176.78 43.26 171.85 52.81
  A 1.89 1.86 -56.0 0 0 172.28 55.09
  L 183.07 64.44
  A 0.51 0.42 52.3 0 1 183.05 65.24
  Q 182.97 65.27 182.77 65.30
  Q 174.99 60.36 168.89 53.68
  Q 168.55 53.31 168.84 52.91
  L 172.88 47.20
  Q 177.50 39.27 184.71 33.73
  Z"
/>
<path fill="#4b2318" d="
  M 93.94 34.23
  L 106.05 51.74
  L 106.93 53.77
  Q 107.15 54.27 106.74 54.65
  Q 99.53 61.20 90.51 65.97
  Q 94.35 62.17 99.04 59.38
  C 101.02 58.19 102.66 56.52 104.13 54.98
  A 1.75 1.75 0.0 0 0 104.36 52.87
  Q 99.19 44.32 93.92 35.53
  Q 93.72 35.20 93.72 34.90
  Q 93.72 34.40 93.94 34.23
  Z"
/>
<path fill="#ce6f27" d="
  M 226.74 63.51
  Q 228.99 72.94 228.36 82.07
  L 222.59 88.33
  A 0.69 0.67 -54.0 0 1 221.78 88.47
  Q 217.40 86.10 214.12 82.57
  Q 215.33 82.05 213.17 79.71
  Q 213.13 77.72 212.87 75.78
  C 211.81 67.76 212.12 59.08 212.27 50.95
  L 213.10 36.27
  L 213.97 50.92
  Q 213.99 51.31 214.30 51.07
  Q 214.56 50.88 214.50 50.51
  A 0.60 0.60 0.0 0 1 214.79 49.89
  L 215.34 49.56
  A 0.35 0.34 72.5 0 0 215.51 49.23
  C 215.06 45.02 214.01 38.73 215.43 34.72
  A 0.89 0.89 0.0 0 1 217.16 35.00
  Q 217.62 52.19 217.96 69.43
  C 217.99 70.84 217.43 71.99 216.96 73.25
  A 0.47 0.47 0.0 0 0 217.80 73.67
  Q 221.28 68.22 226.74 63.51
  Z"
/>
<path fill="#b96126" d="
  M 210.57 35.16
  C 207.31 43.87 201.11 48.29 194.56 54.05
  Q 196.30 49.41 199.24 45.27
  C 201.27 42.40 200.73 39.44 205.18 38.42
  Q 205.67 38.31 205.93 37.87
  Q 207.45 35.31 210.57 35.16
  Z"
/>
<path fill="#f0eba6" d="
  M 83.50 46.74
  Q 77.77 42.02 75.18 35.63
  Q 81.58 38.95 84.98 45.41
  Q 85.41 46.24 85.05 46.56
  Q 84.65 46.92 83.50 46.74
  Z"
/>
<path fill="#4b2318" d="
  M 212.27 50.95
  C 212.12 59.08 211.81 67.76 212.87 75.78
  Q 213.13 77.72 213.17 79.71
  C 207.61 74.10 209.88 57.80 209.09 49.07
  Q 208.73 45.02 210.15 40.89
  A 0.38 0.37 -35.5 0 1 210.88 41.01
  L 210.81 51.72
  A 0.40 0.39 -13.2 0 0 211.38 52.07
  Q 211.85 51.84 212.27 50.95
  Z"
/>
<path fill="#4b2318" d="
  M 138.32 47.02
  Q 140.89 64.76 141.46 82.76
  C 141.89 96.41 138.98 105.19 137.31 116.81
  Q 136.98 119.13 137.10 116.79
  C 137.59 107.63 135.95 97.78 135.99 89.34
  Q 136.08 68.50 137.36 47.80
  L 137.56 45.73
  Q 137.65 44.78 137.92 45.70
  L 138.32 47.02
  Z"
/>
<path fill="#f5c651" d="
  M 172.88 47.20
  L 168.84 52.91
  Q 168.55 53.31 168.89 53.68
  Q 174.99 60.36 182.77 65.30
  Q 188.54 69.26 194.54 72.99
  C 197.81 75.02 201.40 75.10 204.43 77.25
  Q 206.83 78.95 209.82 79.48
  L 214.12 82.57
  Q 217.40 86.10 221.78 88.47
  A 0.69 0.67 -54.0 0 0 222.59 88.33
  L 228.36 82.07
  L 232.34 98.22
  Q 232.00 99.73 232.67 101.02
  L 233.94 103.78
  L 234.81 107.47
  Q 234.89 108.95 234.38 109.05
  Q 234.69 108.26 234.34 107.68
  Q 234.09 107.27 233.72 107.58
  L 227.62 112.69
  Q 215.77 111.48 204.32 109.81
  Q 204.41 109.39 203.68 109.36
  Q 196.51 109.10 189.62 107.11
  A 1.78 1.76 45.3 0 0 188.66 107.10
  Q 180.35 109.35 170.21 108.84
  Q 165.26 103.01 159.25 103.16
  Q 158.75 103.17 158.34 103.46
  C 150.68 108.93 153.78 118.90 157.35 126.14
  Q 155.93 128.32 154.83 128.14
  Q 147.85 127.01 140.69 125.11
  Q 140.17 124.98 140.16 125.51
  Q 139.68 142.84 142.11 160.07
  L 134.89 160.05
  L 134.79 125.49
  A 1.66 1.66 0.0 0 0 132.47 123.97
  Q 127.21 126.26 121.48 125.69
  Q 120.98 125.65 120.70 126.05
  Q 119.79 127.34 118.48 126.91
  C 121.37 119.04 125.92 111.03 117.91 104.24
  C 118.01 101.46 114.44 101.94 112.55 102.53
  Q 107.29 104.18 101.89 105.45
  Q 101.41 105.56 100.95 105.40
  Q 99.14 104.77 97.36 105.05
  C 92.20 105.86 87.66 104.66 82.53 105.89
  Q 76.67 107.29 68.24 108.75
  C 64.90 109.33 63.56 108.52 60.62 107.75
  Q 54.77 106.21 49.17 103.83
  C 46.01 102.50 49.23 100.08 47.18 97.99
  L 49.18 84.37
  Q 50.37 86.05 50.56 88.89
  Q 50.61 89.53 51.23 89.37
  Q 55.74 88.17 57.99 85.55
  L 64.87 79.88
  L 69.68 76.62
  Q 70.09 77.66 70.72 78.04
  Q 71.27 78.37 72.23 77.89
  Q 82.27 72.93 90.51 65.97
  Q 99.53 61.20 106.74 54.65
  Q 107.15 54.27 106.93 53.77
  L 106.05 51.74
  L 112.38 49.32
  Q 112.86 49.13 113.36 49.20
  C 116.17 49.57 118.72 48.46 120.93 48.30
  Q 129.23 47.70 137.36 47.80
  Q 136.08 68.50 135.99 89.34
  C 135.95 97.78 137.59 107.63 137.10 116.79
  Q 136.98 119.13 137.31 116.81
  C 138.98 105.19 141.89 96.41 141.46 82.76
  Q 140.89 64.76 138.32 47.02
  C 139.00 46.62 141.16 47.53 142.39 47.15
  C 149.15 45.08 158.01 45.90 164.83 47.90
  C 167.09 48.57 169.67 47.21 172.88 47.20
  Z"
/>
<path fill="#b96126" d="
  M 0.00 56.44
  L 0.00 50.46
  L 0.24 50.20
  Q 0.93 49.46 0.94 50.47
  L 1.02 56.70
  A 0.38 0.37 26.9 0 1 0.34 56.92
  L 0.00 56.44
  Z"
/>
<path fill="#ce6f27" d="
  M 54.25 79.12
  Q 55.49 82.82 57.99 85.55
  Q 55.74 88.17 51.23 89.37
  Q 50.61 89.53 50.56 88.89
  Q 50.37 86.05 49.18 84.37
  L 50.96 76.01
  Q 51.08 75.42 51.56 75.77
  Q 52.97 76.76 54.25 79.12
  Z"
/>
<path fill="#f5e572" d="
  M 47.18 97.99
  C 49.23 100.08 46.01 102.50 49.17 103.83
  Q 54.77 106.21 60.62 107.75
  C 63.56 108.52 64.90 109.33 68.24 108.75
  Q 76.67 107.29 82.53 105.89
  C 87.66 104.66 92.20 105.86 97.36 105.05
  Q 99.14 104.77 100.95 105.40
  Q 101.41 105.56 101.89 105.45
  Q 107.29 104.18 112.55 102.53
  C 114.44 101.94 118.01 101.46 117.91 104.24
  Q 111.76 101.74 107.18 108.87
  Q 106.91 109.28 107.04 109.76
  Q 109.18 117.66 114.81 124.04
  Q 112.72 122.11 110.74 120.21
  C 103.57 113.31 94.43 116.04 86.72 120.34
  C 84.26 121.71 81.41 122.30 78.83 123.74
  Q 78.95 128.89 74.75 128.25
  Q 68.85 127.36 61.78 122.50
  Q 54.78 115.11 48.06 107.44
  Q 46.98 106.21 45.32 105.93
  Q 45.69 104.89 45.41 103.47
  Q 46.07 102.15 46.09 100.51
  L 47.18 97.99
  Z"
/>
<path fill="#67736b" d="
  M 232.34 98.22
  L 233.08 98.48
  Q 232.89 99.38 233.07 100.23
  Q 232.76 100.57 232.67 101.02
  Q 232.00 99.73 232.34 98.22
  Z"
/>
<path fill="#343533" d="
  M 233.07 100.23
  Q 234.08 101.77 233.94 103.78
  L 232.67 101.02
  Q 232.76 100.57 233.07 100.23
  Z"
/>
<path fill="#f7fafa" d="
  M 170.21 108.84
  L 173.30 110.40
  A 1.22 1.21 -45.1 0 1 173.30 112.57
  Q 171.71 113.37 169.89 113.26
  Q 169.41 113.23 169.00 113.48
  Q 164.27 116.34 164.81 120.40
  L 158.45 127.54
  L 157.72 127.49
  Q 157.14 127.44 157.23 126.87
  L 157.35 126.14
  C 153.78 118.90 150.68 108.93 158.34 103.46
  Q 158.75 103.17 159.25 103.16
  Q 165.26 103.01 170.21 108.84
  Z"
/>
<path fill="#f4f6e9" d="
  M 117.91 104.24
  C 125.92 111.03 121.37 119.04 118.48 126.91
  Q 119.63 128.62 118.26 129.26
  L 114.81 124.04
  Q 109.18 117.66 107.04 109.76
  Q 106.91 109.28 107.18 108.87
  Q 111.76 101.74 117.91 104.24
  Z"
/>
<path fill="#271c15" d="
  M 45.41 103.47
  Q 45.69 104.89 45.32 105.93
  Q 45.00 107.32 44.64 107.22
  Q 44.06 107.62 44.19 109.88
  Q 43.29 105.78 45.41 103.47
  Z"
/>
<path fill="#f4f6e9" d="
  M 45.32 105.93
  Q 46.98 106.21 48.06 107.44
  Q 54.78 115.11 61.78 122.50
  C 64.31 126.55 68.13 130.68 69.70 135.11
  C 70.68 137.85 72.83 138.50 73.94 140.90
  Q 74.14 141.32 74.56 141.53
  Q 78.71 143.63 79.99 147.96
  C 82.75 157.34 97.62 152.71 98.40 165.48
  Q 98.44 166.09 99.06 166.11
  L 103.18 166.24
  L 100.52 179.90
  Q 97.74 178.32 95.04 179.21
  Q 94.56 179.37 94.29 179.80
  L 92.63 182.54
  Q 91.08 181.51 90.06 179.88
  Q 84.91 175.14 79.01 172.23
  Q 76.70 170.17 72.75 169.91
  Q 70.91 169.79 70.87 171.49
  C 70.84 173.14 72.27 174.79 72.37 176.18
  C 72.65 179.89 72.98 183.43 74.22 187.06
  C 75.79 191.64 77.78 195.90 77.88 200.89
  Q 78.09 210.38 79.54 217.24
  Q 80.07 219.74 79.07 221.14
  Q 78.89 221.39 78.98 221.68
  Q 79.03 221.83 79.01 221.99
  Q 78.96 222.48 78.60 222.15
  Q 78.04 221.64 77.51 221.81
  L 67.05 212.99
  C 63.02 208.13 63.02 201.38 62.63 195.01
  C 62.33 190.14 60.15 184.45 58.01 180.00
  Q 50.41 164.23 42.56 148.58
  C 39.86 143.17 41.95 126.17 42.59 121.81
  Q 43.75 113.97 43.94 110.66
  Q 44.07 109.99 44.14 110.37
  Q 45.07 109.05 44.64 107.22
  Q 45.00 107.32 45.32 105.93
  Z"
/>
<path fill="#f5e572" d="
  M 227.62 112.69
  L 217.50 121.45
  L 210.46 126.85
  Q 210.01 127.19 209.48 127.04
  Q 205.67 126.00 202.05 127.61
  A 1.28 1.26 -49.2 0 1 201.19 127.68
  Q 198.17 126.90 196.66 124.53
  Q 194.51 122.77 191.52 122.65
  Q 191.02 122.63 190.59 122.35
  C 182.19 116.98 173.98 113.32 164.81 120.40
  Q 164.27 116.34 169.00 113.48
  Q 169.41 113.23 169.89 113.26
  Q 171.71 113.37 173.30 112.57
  A 1.22 1.21 -45.1 0 0 173.30 110.40
  L 170.21 108.84
  Q 180.35 109.35 188.66 107.10
  A 1.78 1.76 45.3 0 1 189.62 107.11
  Q 196.51 109.10 203.68 109.36
  Q 204.41 109.39 204.32 109.81
  Q 215.77 111.48 227.62 112.69
  Z"
/>
<path fill="#67736b" d="
  M 44.64 107.22
  Q 45.07 109.05 44.14 110.37
  Q 43.74 109.48 44.19 109.88
  Q 44.06 107.62 44.64 107.22
  Z"
/>
<path fill="#f4f6e9" d="
  M 234.38 109.05
  Q 238.36 125.03 238.50 141.43
  C 238.54 145.57 236.71 148.69 235.07 152.35
  L 231.37 150.91
  Q 230.92 150.74 230.45 150.88
  Q 227.68 151.73 224.09 154.12
  Q 221.89 155.59 215.57 158.35
  C 214.41 158.86 213.36 160.04 211.86 160.28
  Q 211.23 160.38 210.71 160.75
  L 203.07 166.29
  A 1.41 1.40 -12.3 0 0 202.52 167.14
  Q 201.80 170.63 198.54 171.72
  Q 197.89 171.70 197.53 172.01
  Q 196.34 171.93 196.13 170.75
  Q 196.02 170.18 195.48 170.39
  C 189.99 172.48 184.99 171.99 179.74 172.94
  C 176.30 173.56 176.34 171.55 175.92 168.97
  C 175.70 167.59 174.34 161.06 175.99 159.30
  A 1.13 1.12 -66.5 0 1 176.87 158.95
  Q 178.13 159.03 178.82 158.21
  Q 179.10 157.89 179.52 157.84
  Q 183.95 157.38 187.64 155.12
  C 192.20 152.33 196.63 151.70 195.21 144.57
  C 195.04 143.74 195.56 142.34 196.27 141.63
  C 201.10 136.77 205.58 131.77 211.16 127.72
  Q 214.73 125.14 217.50 121.45
  L 227.62 112.69
  L 233.72 107.58
  Q 234.09 107.27 234.34 107.68
  Q 234.69 108.26 234.38 109.05
  Z"
/>
<path fill="#343533" d="
  M 234.81 107.47
  Q 237.60 115.44 237.84 118.21
  Q 238.10 121.36 238.97 123.02
  A 1.60 1.60 0.0 0 1 239.13 123.97
  C 238.47 128.26 239.96 132.00 240.00 135.61
  Q 240.04 139.32 239.98 143.03
  C 239.92 147.19 237.49 151.30 236.04 155.17
  C 233.79 161.18 230.42 166.72 227.99 172.74
  Q 227.87 173.03 228.05 173.57
  A 1.02 1.02 0.0 0 1 227.91 174.48
  C 226.27 176.75 225.83 179.38 224.72 181.57
  Q 221.02 188.94 218.84 197.08
  Q 218.92 191.28 220.31 187.56
  Q 225.25 174.38 235.07 152.35
  C 236.71 148.69 238.54 145.57 238.50 141.43
  Q 238.36 125.03 234.38 109.05
  Q 234.89 108.95 234.81 107.47
  Z"
/>
<path fill="#343533" d="
  M 43.94 110.66
  Q 43.75 113.97 42.59 121.81
  C 41.95 126.17 39.86 143.17 42.56 148.58
  Q 50.41 164.23 58.01 180.00
  C 60.15 184.45 62.33 190.14 62.63 195.01
  C 63.02 201.38 63.02 208.13 67.05 212.99
  C 59.35 208.93 63.00 201.88 60.90 194.94
  C 60.08 192.21 60.27 189.82 58.89 187.36
  C 56.97 183.92 55.82 180.16 53.67 176.87
  C 50.78 172.44 49.49 167.54 46.48 162.79
  C 44.56 159.75 43.78 155.79 42.34 152.81
  C 41.21 150.48 39.97 148.63 39.99 145.90
  C 40.01 142.22 39.24 135.52 40.81 132.29
  Q 41.03 131.84 41.01 131.34
  Q 40.58 120.80 43.94 110.66
  Z"
/>
<path fill="#000101" d="
  M 114.81 124.04
  L 118.26 129.26
  C 120.80 132.54 116.40 135.77 113.99 137.46
  C 101.51 144.57 85.99 139.45 84.95 123.71
  A 0.42 0.42 0.0 0 0 84.40 123.34
  Q 81.48 124.31 78.83 123.74
  C 81.41 122.30 84.26 121.71 86.72 120.34
  C 94.43 116.04 103.57 113.31 110.74 120.21
  Q 112.72 122.11 114.81 124.04
  Z
  M 95.60 125.26
  Q 96.26 125.38 96.96 124.22
  Q 98.69 124.28 99.85 123.78
  A 0.33 0.33 0.0 0 0 99.78 123.16
  Q 96.19 122.53 93.24 124.57
  Q 92.83 124.86 92.77 125.35
  Q 92.49 127.69 94.20 129.33
  Q 94.63 129.74 95.21 129.60
  L 98.45 128.80
  A 0.55 0.54 -55.6 0 0 98.25 127.73
  L 95.79 128.06
  A 0.64 0.64 0.0 0 1 95.07 127.49
  Q 94.96 126.39 95.60 125.26
  Z
  M 110.46 126.48
  Q 110.05 129.97 107.91 132.69
  A 0.17 0.17 0.0 0 0 108.16 132.92
  Q 110.95 130.32 111.05 126.53
  A 0.30 0.29 49.5 0 0 110.46 126.48
  Z"
/>
<path fill="#000101" d="
  M 196.66 124.53
  L 191.55 124.39
  Q 191.05 124.38 190.94 124.86
  Q 189.54 130.77 189.00 132.28
  C 185.35 142.46 171.49 142.85 162.82 139.64
  Q 153.57 135.54 158.45 127.54
  L 164.81 120.40
  C 173.98 113.32 182.19 116.98 190.59 122.35
  Q 191.02 122.63 191.52 122.65
  Q 194.51 122.77 196.66 124.53
  Z
  M 169.41 123.05
  C 167.04 125.79 165.72 131.63 168.80 134.45
  Q 169.08 134.71 169.32 134.42
  Q 169.57 134.12 169.32 133.83
  C 166.77 130.89 168.12 126.41 169.53 123.35
  Q 172.54 120.81 176.06 119.84
  A 0.20 0.20 0.0 0 0 175.99 119.44
  Q 171.96 119.70 169.41 123.05
  Z
  M 182.74 129.27
  L 185.02 125.48
  A 0.69 0.69 0.0 0 0 184.78 124.54
  L 184.69 124.48
  A 2.88 2.81 31.0 0 0 180.77 125.41
  L 180.68 125.56
  A 2.88 2.81 31.0 0 0 181.70 129.45
  L 181.79 129.51
  A 0.69 0.69 0.0 0 0 182.74 129.27
  Z
  M 169.03 129.19
  A 0.35 0.35 0.0 0 0 169.69 129.40
  Q 169.96 128.73 169.96 128.07
  A 0.34 0.34 0.0 0 0 169.29 128.00
  L 169.03 129.19
  Z
  M 178.5400 137.4971
  A 2.02 0.45 0.2 0 0 176.5216 137.0400
  A 2.02 0.45 0.2 0 0 174.5000 137.4829
  A 2.02 0.45 0.2 0 0 176.5184 137.9400
  A 2.02 0.45 0.2 0 0 178.5400 137.4971
  Z"
/>
<path fill="#343533" d="
  M 169.53 123.35
  Q 169.47 123.20 169.41 123.05
  Q 171.96 119.70 175.99 119.44
  A 0.20 0.20 0.0 0 1 176.06 119.84
  Q 172.54 120.81 169.53 123.35
  Z"
/>
<path fill="#f0eba6" d="
  M 217.50 121.45
  Q 214.73 125.14 211.16 127.72
  C 205.58 131.77 201.10 136.77 196.27 141.63
  C 195.56 142.34 195.04 143.74 195.21 144.57
  C 196.63 151.70 192.20 152.33 187.64 155.12
  Q 183.95 157.38 179.52 157.84
  Q 179.10 157.89 178.82 158.21
  Q 178.13 159.03 176.87 158.95
  A 1.13 1.12 -66.5 0 0 175.99 159.30
  C 174.34 161.06 175.70 167.59 175.92 168.97
  C 176.34 171.55 176.30 173.56 179.74 172.94
  C 184.99 171.99 189.99 172.48 195.48 170.39
  Q 196.02 170.18 196.13 170.75
  Q 196.34 171.93 197.53 172.01
  L 181.77 181.56
  Q 181.75 181.71 181.22 182.08
  C 179.83 179.82 176.00 180.66 173.78 181.53
  Q 172.19 160.50 162.23 141.63
  Q 162.05 140.35 162.82 139.64
  C 171.49 142.85 185.35 142.46 189.00 132.28
  Q 189.54 130.77 190.94 124.86
  Q 191.05 124.38 191.55 124.39
  L 196.66 124.53
  Q 198.17 126.90 201.19 127.68
  A 1.28 1.26 -49.2 0 0 202.05 127.61
  Q 205.67 126.00 209.48 127.04
  Q 210.01 127.19 210.46 126.85
  L 217.50 121.45
  Z"
/>
<path fill="#f0eba6" d="
  M 61.78 122.50
  Q 68.85 127.36 74.75 128.25
  Q 78.95 128.89 78.83 123.74
  Q 81.48 124.31 84.40 123.34
  A 0.42 0.42 0.0 0 1 84.95 123.71
  C 85.99 139.45 101.51 144.57 113.99 137.46
  Q 115.52 139.98 113.18 141.19
  Q 109.93 142.88 110.48 145.56
  C 111.35 149.79 116.50 149.00 116.40 154.64
  L 111.15 149.01
  Q 110.69 148.52 110.28 149.05
  Q 107.73 152.38 106.28 156.70
  Q 103.89 160.86 103.18 166.24
  L 99.06 166.11
  Q 98.44 166.09 98.40 165.48
  C 97.62 152.71 82.75 157.34 79.99 147.96
  Q 78.71 143.63 74.56 141.53
  Q 74.14 141.32 73.94 140.90
  C 72.83 138.50 70.68 137.85 69.70 135.11
  C 68.13 130.68 64.31 126.55 61.78 122.50
  Z"
/>
<path fill="#f4f6e9" d="
  M 96.96 124.22
  Q 96.28 124.15 95.70 124.34
  Q 95.34 124.45 95.36 124.69
  Q 95.38 124.92 95.60 125.26
  Q 94.96 126.39 95.07 127.49
  A 0.64 0.64 0.0 0 0 95.79 128.06
  L 98.25 127.73
  A 0.55 0.54 -55.6 0 1 98.45 128.80
  L 95.21 129.60
  Q 94.63 129.74 94.20 129.33
  Q 92.49 127.69 92.77 125.35
  Q 92.83 124.86 93.24 124.57
  Q 96.19 122.53 99.78 123.16
  A 0.33 0.33 0.0 0 1 99.85 123.78
  Q 98.69 124.28 96.96 124.22
  Z"
/>
<path fill="#67736b" d="
  M 169.41 123.05
  Q 169.47 123.20 169.53 123.35
  C 168.12 126.41 166.77 130.89 169.32 133.83
  Q 169.57 134.12 169.32 134.42
  Q 169.08 134.71 168.80 134.45
  C 165.72 131.63 167.04 125.79 169.41 123.05
  Z"
/>
<path fill="#f5e572" d="
  M 134.89 160.05
  Q 125.87 160.87 121.70 167.19
  L 121.06 170.93
  Q 121.22 162.77 116.40 154.64
  C 116.50 149.00 111.35 149.79 110.48 145.56
  Q 109.93 142.88 113.18 141.19
  Q 115.52 139.98 113.99 137.46
  C 116.40 135.77 120.80 132.54 118.26 129.26
  Q 119.63 128.62 118.48 126.91
  Q 119.79 127.34 120.70 126.05
  Q 120.98 125.65 121.48 125.69
  Q 127.21 126.26 132.47 123.97
  A 1.66 1.66 0.0 0 1 134.79 125.49
  L 134.89 160.05
  Z"
/>
<path fill="#f4f6e9" d="
  M 182.74 129.27
  A 0.69 0.69 0.0 0 1 181.79 129.51
  L 181.70 129.45
  A 2.88 2.81 31.0 0 1 180.68 125.56
  L 180.77 125.41
  A 2.88 2.81 31.0 0 1 184.69 124.48
  L 184.78 124.54
  A 0.69 0.69 0.0 0 1 185.02 125.48
  L 182.74 129.27
  Z"
/>
<path fill="#67736b" d="
  M 96.96 124.22
  Q 96.26 125.38 95.60 125.26
  Q 95.38 124.92 95.36 124.69
  Q 95.34 124.45 95.70 124.34
  Q 96.28 124.15 96.96 124.22
  Z"
/>
<path fill="#f5e572" d="
  M 157.35 126.14
  L 157.23 126.87
  Q 157.14 127.44 157.72 127.49
  L 158.45 127.54
  Q 153.57 135.54 162.82 139.64
  Q 162.05 140.35 162.23 141.63
  L 163.22 146.10
  Q 156.52 155.78 152.92 165.85
  Q 149.27 161.27 142.11 160.07
  Q 139.68 142.84 140.16 125.51
  Q 140.17 124.98 140.69 125.11
  Q 147.85 127.01 154.83 128.14
  Q 155.93 128.32 157.35 126.14
  Z"
/>
<path fill="#bcbaa0" d="
  M 110.46 126.48
  A 0.30 0.29 49.5 0 1 111.05 126.53
  Q 110.95 130.32 108.16 132.92
  A 0.17 0.17 0.0 0 1 107.91 132.69
  Q 110.05 129.97 110.46 126.48
  Z"
/>
<path fill="#343533" d="
  M 169.03 129.19
  L 169.29 128.00
  A 0.34 0.34 0.0 0 1 169.96 128.07
  Q 169.96 128.73 169.69 129.40
  A 0.35 0.35 0.0 0 1 169.03 129.19
  Z"
/>
<ellipse fill="#343533" cx="0.00" cy="0.00" transform="translate(176.52,137.49) rotate(0.2)" rx="2.02" ry="0.45"/>
<path fill="#67736b" d="
  M 162.23 141.63
  Q 172.19 160.50 173.78 181.53
  Q 173.40 182.86 172.40 183.51
  Q 172.97 163.17 163.22 146.10
  L 162.23 141.63
  Z"
/>
<path fill="#f4f6e9" d="
  M 163.22 146.10
  Q 172.97 163.17 172.40 183.51
  C 171.04 187.94 168.00 193.96 162.63 194.21
  C 159.91 194.34 157.22 194.65 154.52 194.82
  Q 154.18 194.78 154.06 194.67
  Q 153.96 194.57 154.13 194.31
  Q 155.14 192.73 154.15 191.07
  Q 153.89 190.65 154.09 190.19
  C 155.71 186.50 151.69 185.96 150.87 183.00
  C 154.91 177.81 154.81 172.33 152.92 165.85
  Q 156.52 155.78 163.22 146.10
  Z
  M 158.23 191.09
  A 0.44 0.44 0.0 0 0 157.77 191.78
  Q 158.02 192.09 157.97 192.51
  A 0.85 0.69 -41.4 0 0 159.51 192.45
  Q 159.71 191.50 158.23 191.09
  Z"
/>
<path fill="#f7fafa" d="
  M 116.40 154.64
  Q 121.22 162.77 121.06 170.93
  Q 119.76 179.95 125.68 187.35
  L 123.63 191.07
  Q 123.31 191.65 122.66 191.52
  L 119.74 190.91
  A 0.92 0.90 -57.0 0 0 118.99 191.08
  L 117.62 192.11
  A 1.31 1.26 31.6 0 1 116.58 192.34
  Q 111.92 191.37 111.58 193.99
  C 105.11 194.36 104.24 189.18 102.72 183.49
  Q 102.52 170.04 106.28 156.70
  Q 107.73 152.38 110.28 149.05
  Q 110.69 148.52 111.15 149.01
  L 116.40 154.64
  Z"
/>
<path fill="#f0efd3" d="
  M 235.07 152.35
  Q 225.25 174.38 220.31 187.56
  Q 218.92 191.28 218.84 197.08
  Q 218.40 200.72 216.94 202.44
  Q 207.86 213.06 188.76 232.36
  Q 187.28 232.16 189.41 230.47
  Q 189.81 230.15 189.90 229.64
  C 190.56 226.10 188.84 224.89 185.85 222.68
  C 181.16 219.21 184.58 213.59 187.48 209.55
  C 189.97 206.08 188.17 202.52 189.35 198.61
  C 190.90 193.49 191.50 188.20 192.96 183.03
  C 193.59 180.82 195.28 179.37 196.80 177.77
  Q 197.11 177.43 197.19 176.97
  Q 197.59 174.61 196.66 173.36
  L 198.54 171.72
  Q 201.80 170.63 202.52 167.14
  A 1.41 1.40 -12.3 0 1 203.07 166.29
  L 210.71 160.75
  Q 211.23 160.38 211.86 160.28
  C 213.36 160.04 214.41 158.86 215.57 158.35
  Q 221.89 155.59 224.09 154.12
  Q 227.68 151.73 230.45 150.88
  Q 230.92 150.74 231.37 150.91
  L 235.07 152.35
  Z"
/>
<path fill="#bcbaa0" d="
  M 106.28 156.70
  Q 102.52 170.04 102.72 183.49
  Q 100.77 181.20 100.52 179.90
  L 103.18 166.24
  Q 103.89 160.86 106.28 156.70
  Z"
/>
<path fill="#000101" d="
  M 142.11 160.07
  Q 149.27 161.27 152.92 165.85
  C 154.81 172.33 154.91 177.81 150.87 183.00
  Q 147.06 187.78 141.19 189.64
  A 1.47 1.47 0.0 0 0 141.29 192.47
  Q 146.61 193.77 152.99 195.03
  Q 153.77 195.18 154.52 194.82
  C 157.22 194.65 159.91 194.34 162.63 194.21
  C 168.00 193.96 171.04 187.94 172.40 183.51
  Q 173.40 182.86 173.78 181.53
  C 176.00 180.66 179.83 179.82 181.22 182.08
  Q 181.93 183.09 181.72 183.99
  C 178.92 196.01 170.70 198.54 160.12 200.17
  Q 159.60 200.25 159.24 200.62
  C 157.94 201.94 157.24 203.24 155.74 204.24
  C 142.74 212.94 129.85 211.88 117.08 203.66
  C 107.64 197.58 98.23 197.32 93.96 185.01
  Q 93.42 183.45 92.63 182.54
  L 94.29 179.80
  Q 94.56 179.37 95.04 179.21
  Q 97.74 178.32 100.52 179.90
  Q 100.77 181.20 102.72 183.49
  C 104.24 189.18 105.11 194.36 111.58 193.99
  C 116.92 195.62 119.34 196.12 123.76 194.69
  Q 131.26 192.44 138.26 192.56
  A 1.10 1.10 0.0 0 0 139.06 190.68
  L 138.25 189.88
  Q 137.88 189.51 137.41 189.73
  Q 136.19 190.30 135.01 189.73
  C 123.99 184.44 120.83 179.65 121.70 167.19
  Q 125.87 160.87 134.89 160.05
  L 142.11 160.07
  Z
  M 129.82 169.92
  L 132.70 167.57
  A 0.47 0.47 0.0 0 0 132.77 166.91
  L 132.67 166.79
  A 2.22 2.13 -39.2 0 0 129.60 166.54
  L 129.43 166.68
  A 2.22 2.13 -39.2 0 0 129.06 169.73
  L 129.16 169.86
  A 0.47 0.47 0.0 0 0 129.82 169.92
  Z
  M 147.85 169.07
  L 151.73 171.10
  A 0.12 0.12 0.0 0 0 151.90 171.05
  L 151.92 170.99
  A 2.16 1.88 27.6 0 0 150.88 168.33
  L 150.61 168.19
  A 2.16 1.88 27.6 0 0 147.83 168.85
  L 147.80 168.91
  A 0.12 0.12 0.0 0 0 147.85 169.07
  Z
  M 112.01 198.26
  C 116.86 201.53 121.92 205.74 127.14 207.42
  C 137.98 210.93 149.55 208.32 157.74 200.22
  Q 158.31 199.65 157.51 199.71
  C 145.35 200.60 134.37 202.00 121.78 199.74
  L 119.22 197.84
  C 115.13 195.61 111.01 195.76 106.68 194.85
  A 3.28 3.28 0.0 0 1 104.24 192.73
  C 103.33 190.22 100.75 179.50 96.73 181.24
  Q 96.28 181.43 96.18 181.90
  C 94.26 190.46 105.01 197.31 112.01 198.26
  Z
  M 173.75 185.42
  C 169.07 196.52 162.82 196.00 152.23 197.36
  A 0.53 0.53 0.0 0 0 152.27 198.41
  C 163.31 198.87 176.82 198.07 179.93 185.08
  Q 180.43 183.01 178.34 182.60
  C 175.89 182.12 174.70 183.15 173.75 185.42
  Z"
/>
<path fill="#271c15" d="
  M 129.82 169.92
  A 0.47 0.47 0.0 0 1 129.16 169.86
  L 129.06 169.73
  A 2.22 2.13 -39.2 0 1 129.43 166.68
  L 129.60 166.54
  A 2.22 2.13 -39.2 0 1 132.67 166.79
  L 132.77 166.91
  A 0.47 0.47 0.0 0 1 132.70 167.57
  L 129.82 169.92
  Z"
/>
<path fill="#67736b" d="
  M 121.70 167.19
  C 120.83 179.65 123.99 184.44 135.01 189.73
  Q 136.19 190.30 137.41 189.73
  Q 137.88 189.51 138.25 189.88
  L 139.06 190.68
  A 1.10 1.10 0.0 0 1 138.26 192.56
  Q 131.26 192.44 123.76 194.69
  Q 124.32 192.92 126.77 188.49
  Q 127.38 187.40 125.68 187.35
  Q 119.76 179.95 121.06 170.93
  L 121.70 167.19
  Z"
/>
<path fill="#343533" d="
  M 147.85 169.07
  A 0.12 0.12 0.0 0 1 147.80 168.91
  L 147.83 168.85
  A 2.16 1.88 27.6 0 1 150.61 168.19
  L 150.88 168.33
  A 2.16 1.88 27.6 0 1 151.92 170.99
  L 151.90 171.05
  A 0.12 0.12 0.0 0 1 151.73 171.10
  L 147.85 169.07
  Z"
/>
<path fill="#e6e0be" d="
  M 79.01 172.23
  L 88.40 180.09
  Q 84.42 181.08 81.30 177.47
  Q 79.81 175.75 78.37 175.21
  A 0.30 0.30 0.0 0 0 78.03 175.68
  Q 83.39 182.43 91.96 183.19
  A 0.50 0.49 -68.2 0 1 92.30 183.99
  L 91.07 185.49
  Q 90.75 185.89 91.00 186.34
  Q 93.05 190.12 95.48 193.75
  C 97.50 196.76 100.64 198.48 102.47 202.12
  Q 104.27 205.70 105.13 207.00
  Q 107.69 210.83 109.53 215.07
  C 111.73 220.11 117.68 224.93 121.61 228.78
  C 125.17 232.25 128.48 233.62 133.06 234.84
  C 140.04 236.70 151.02 229.10 155.80 224.81
  Q 159.18 221.76 169.51 209.50
  Q 174.24 203.89 177.90 197.46
  A 1.08 1.07 -37.0 0 0 178.01 196.70
  Q 177.65 194.99 179.35 194.62
  Q 179.82 194.52 180.09 194.12
  C 181.18 192.50 181.31 190.95 182.70 189.63
  C 185.79 186.73 193.28 181.67 194.16 178.91
  A 0.40 0.40 0.0 0 0 193.52 178.49
  L 188.53 182.96
  A 0.88 0.87 -53.0 0 1 187.56 183.10
  Q 186.38 182.55 185.88 180.22
  L 196.66 173.36
  Q 197.59 174.61 197.19 176.97
  Q 197.11 177.43 196.80 177.77
  C 195.28 179.37 193.59 180.82 192.96 183.03
  C 191.50 188.20 190.90 193.49 189.35 198.61
  C 188.17 202.52 189.97 206.08 187.48 209.55
  C 184.58 213.59 181.16 219.21 185.85 222.68
  C 188.84 224.89 190.56 226.10 189.90 229.64
  Q 189.81 230.15 189.41 230.47
  Q 187.28 232.16 188.76 232.36
  Q 175.48 245.09 163.84 259.34
  C 158.32 266.09 152.21 275.49 146.02 283.30
  Q 143.36 286.68 139.75 286.17
  Q 139.22 286.10 138.83 285.72
  Q 134.21 281.29 130.99 275.79
  Q 129.43 273.14 127.34 270.73
  C 124.98 268.01 123.24 264.81 120.93 262.35
  C 118.03 259.26 115.91 257.07 112.57 253.03
  C 110.59 250.64 107.92 249.33 105.97 247.17
  C 101.99 242.79 96.71 239.29 92.96 235.88
  C 87.90 231.27 82.37 226.99 77.51 221.81
  Q 78.04 221.64 78.60 222.15
  Q 78.96 222.48 79.01 221.99
  Q 79.03 221.83 78.98 221.68
  Q 78.89 221.39 79.07 221.14
  Q 80.07 219.74 79.54 217.24
  Q 78.09 210.38 77.88 200.89
  C 77.78 195.90 75.79 191.64 74.22 187.06
  C 72.98 183.43 72.65 179.89 72.37 176.18
  C 72.27 174.79 70.84 173.14 70.87 171.49
  Q 70.91 169.79 72.75 169.91
  Q 76.70 170.17 79.01 172.23
  Z"
/>
<path fill="#343533" d="
  M 198.54 171.72
  L 196.66 173.36
  L 185.88 180.22
  Q 183.00 182.24 181.77 181.56
  L 197.53 172.01
  Q 197.89 171.70 198.54 171.72
  Z"
/>
<path fill="#67736b" d="
  M 90.06 179.88
  Q 89.38 180.60 88.40 180.09
  L 79.01 172.23
  Q 84.91 175.14 90.06 179.88
  Z"
/>
<path fill="#dcd2af" d="
  M 88.40 180.09
  Q 89.38 180.60 90.06 179.88
  Q 91.08 181.51 92.63 182.54
  Q 93.42 183.45 93.96 185.01
  C 98.23 197.32 107.64 197.58 117.08 203.66
  C 129.85 211.88 142.74 212.94 155.74 204.24
  C 157.24 203.24 157.94 201.94 159.24 200.62
  Q 159.60 200.25 160.12 200.17
  C 170.70 198.54 178.92 196.01 181.72 183.99
  Q 181.93 183.09 181.22 182.08
  Q 181.75 181.71 181.77 181.56
  Q 183.00 182.24 185.88 180.22
  Q 186.38 182.55 187.56 183.10
  A 0.88 0.87 -53.0 0 0 188.53 182.96
  L 193.52 178.49
  A 0.40 0.40 0.0 0 1 194.16 178.91
  C 193.28 181.67 185.79 186.73 182.70 189.63
  C 181.31 190.95 181.18 192.50 180.09 194.12
  Q 179.82 194.52 179.35 194.62
  Q 177.65 194.99 178.01 196.70
  A 1.08 1.07 -37.0 0 1 177.90 197.46
  Q 174.24 203.89 169.51 209.50
  Q 159.18 221.76 155.80 224.81
  C 151.02 229.10 140.04 236.70 133.06 234.84
  C 128.48 233.62 125.17 232.25 121.61 228.78
  C 117.68 224.93 111.73 220.11 109.53 215.07
  Q 107.69 210.83 105.13 207.00
  Q 104.27 205.70 102.47 202.12
  C 100.64 198.48 97.50 196.76 95.48 193.75
  Q 93.05 190.12 91.00 186.34
  Q 90.75 185.89 91.07 185.49
  L 92.30 183.99
  A 0.50 0.49 -68.2 0 0 91.96 183.19
  Q 83.39 182.43 78.03 175.68
  A 0.30 0.30 0.0 0 1 78.37 175.21
  Q 79.81 175.75 81.30 177.47
  Q 84.42 181.08 88.40 180.09
  Z
  M 158.31 205.11
  L 163.25 202.29
  A 0.23 0.23 0.0 0 0 163.07 201.87
  Q 160.25 202.70 158.02 204.72
  A 0.25 0.24 8.6 0 0 158.31 205.11
  Z"
/>
<path fill="#f7fafa" d="
  M 119.22 197.84
  Q 118.53 198.78 115.48 198.17
  L 112.01 198.26
  C 105.01 197.31 94.26 190.46 96.18 181.90
  Q 96.28 181.43 96.73 181.24
  C 100.75 179.50 103.33 190.22 104.24 192.73
  A 3.28 3.28 0.0 0 0 106.68 194.85
  C 111.01 195.76 115.13 195.61 119.22 197.84
  Z"
/>
<path fill="#dcd2af" d="
  M 152.23 197.36
  C 162.82 196.00 169.07 196.52 173.75 185.42
  C 174.70 183.15 175.89 182.12 178.34 182.60
  Q 180.43 183.01 179.93 185.08
  C 176.82 198.07 163.31 198.87 152.27 198.41
  A 0.53 0.53 0.0 0 1 152.23 197.36
  Z"
/>
<path fill="#67736b" d="
  M 150.87 183.00
  C 151.69 185.96 155.71 186.50 154.09 190.19
  Q 153.89 190.65 154.15 191.07
  Q 155.14 192.73 154.13 194.31
  Q 153.96 194.57 154.06 194.67
  Q 154.18 194.78 154.52 194.82
  Q 153.77 195.18 152.99 195.03
  Q 146.61 193.77 141.29 192.47
  A 1.47 1.47 0.0 0 1 141.19 189.64
  Q 147.06 187.78 150.87 183.00
  Z"
/>
<path fill="#bcbaa0" d="
  M 125.68 187.35
  Q 127.38 187.40 126.77 188.49
  Q 124.32 192.92 123.76 194.69
  C 119.34 196.12 116.92 195.62 111.58 193.99
  Q 111.92 191.37 116.58 192.34
  A 1.31 1.26 31.6 0 0 117.62 192.11
  L 118.99 191.08
  A 0.92 0.90 -57.0 0 1 119.74 190.91
  L 122.66 191.52
  Q 123.31 191.65 123.63 191.07
  L 125.68 187.35
  Z"
/>
<path fill="#bcbaa0" d="
  M 158.23 191.09
  Q 159.71 191.50 159.51 192.45
  A 0.85 0.69 -41.4 0 1 157.97 192.51
  Q 158.02 192.09 157.77 191.78
  A 0.44 0.44 0.0 0 1 158.23 191.09
  Z"
/>
<path fill="#67736b" d="
  M 119.22 197.84
  L 121.78 199.74
  Q 119.27 199.75 116.83 199.75
  Q 116.05 199.75 115.77 199.43
  Q 115.39 199.00 115.48 198.17
  Q 118.53 198.78 119.22 197.84
  Z"
/>
<path fill="#bcbaa0" d="
  M 112.01 198.26
  L 115.48 198.17
  Q 115.39 199.00 115.77 199.43
  Q 116.05 199.75 116.83 199.75
  Q 119.27 199.75 121.78 199.74
  C 134.37 202.00 145.35 200.60 157.51 199.71
  Q 158.31 199.65 157.74 200.22
  C 149.55 208.32 137.98 210.93 127.14 207.42
  C 121.92 205.74 116.86 201.53 112.01 198.26
  Z"
/>
<path fill="#bcbaa0" d="
  M 158.02 204.72
  Q 160.25 202.70 163.07 201.87
  A 0.23 0.23 0.0 0 1 163.25 202.29
  L 158.31 205.11
  A 0.25 0.24 8.6 0 1 158.02 204.72
  Z"
/>
</svg>

